<?xml version="1.0" encoding="UTF-8"?>
<svg version="1.1" viewBox="0 0 1024 1024" width="1024" height="1024" xmlns="http://www.w3.org/2000/svg">
<path transform="translate(459,207)" d="m0 0 17 1 19 4 13 5 12 5 19 7 25 6 21 3 16 3 18 5 12 3 13 5 15 8 6 3 9 6 7 7 8 7 12 12v2h2l15 22 6 9 7 11 6 9 7 10 9 15 8 16 6 13 4 15 2 18v22l-2 23-3 19-7 68-4 32-3 26-3 9-3 19-8 25-2 4h-2l-3 12-5 15-2 3-3 9-3 3-5 13-5 5-5 6-7 4-3 3-7 3-3 3-9 1-40 2-3 1-22 2-10 4-9 6-9 5-8 5-7 6-9 6-8 5-6 4-21 8-5 1h-20l-11-3-20-8-11-5-15-7-11-4-15-3h-33l-18 1-16-2-12-5-16-8-10-9-5-4-5-5-5-6v-2h-2l-5-8-5-7-10-21-3-5-8-22-4-12-5-17-6-29-1-8v-20l5-33 7-27 3-9 4-21 5-29 2-6 1-11v-101l5-22 4-10 4-7 6-7 4-5 8-7 11-8 8-5 6-3h2v-2l15-8 3-3 5-2 12-10 10-8 5-6 5-5 6-5 5-5 14-12 7-5 21-8 9-2z" fill="#8B58F4"/>
<path transform="translate(459,207)" d="m0 0 17 1 19 4 13 5 12 5 19 7 25 6 21 3 16 3 18 5 12 3 13 5 15 8 6 3 9 6 7 7 8 7 12 12v2h2l15 22 6 9 7 11 6 9 7 10 9 15 8 16 6 13 4 15 2 18v22l-2 23-3 19-7 68-4 32-3 26-3 9-3 19-8 25-2 4h-2l-3 12-5 15-2 3-3 9-3 3-5 13-5 5-5 6-7 4-3 3-7 3-3 3-9 1-40 2-3 1-22 2-10 4-9 6-9 5-8 5-7 6-9 6-8 5-6 4-21 8-5 1h-20l-11-3-20-8-11-5-15-7-11-4-15-3h-33l-18 1-16-2-12-5-16-8-10-9-5-4-5-5-5-6v-2h-2l-5-8-5-7-10-21-3-5-8-22-4-12-5-17-6-29-1-8v-20l5-33 7-27 3-9 4-21 5-29 2-6 1-11v-101l5-22 4-10 4-7 6-7 4-5 8-7 11-8 8-5 6-3h2v-2l15-8 3-3 5-2 12-10 10-8 5-6 5-5 6-5 5-5 14-12 7-5 21-8 9-2zm37 42-14 1-7 2-11 1-9 3-12 3-6 4-6 3-14 5-11 5-5 5-13 7-11 9-6 7-4 3v2h-3l-3 5-6 5v2h-2v2h-2v2l-4 2-8 7-5 9-4 7v2l-3 1-3 3-3 8-3 3-4 17-6 9-5 12-3 23-2 19-2 13-1 4-1 20 1 4-2 3v18l1 12-1 10 1 18 1 4v38l-1 14v12l1 7-1 8-1 21 1 12v9l4 17 1 2 2 17 3 6 3 13 8 11 8 8h2v2l5 3 7 4 8 2h26l15-3 3-2 7-3 13-3 11-1v-1h-7v-3l5-2 3-4v-3l3-2 2-4 9 1 10 5 7 6 5 6 10 8 2 2 5 2 6 6 14 6 6 1h19l13-5 7-3 6-5 11-7 5-3 4-5v-2l4-2 3-4 15-6h18l6 3 11 9 10 3 5 2 14 7 17 2 13-3 14-7 6-5 7-10 5-12 2-8 1-10 2-3 1-135 1-28 1-5h-2l1-5h2l1-6 2-9v-31h-2v-42l-2-16-1-7-1-14-5-17-5-5-4-9-10-19-8-9-3-7-5-5-7-9-8-6-5-5-7-9-22-12-6-4h-2l-1-3-7-4-13-4h-3v-2l-12-4-4-2-1-2-23-8-10-2-28-3z" fill="#6739A1"/>
<path transform="translate(503,182)" d="m0 0h18v1h7l2-1 17 3 15 4 5 1 18 4 15 4 9 4v2l12 3 11 4 9 4h3l3 3 10 6 9 5 17 12 10 8 3 1 2 4 14 13 5 3 4 7 6 6v2h2l4 7 3 6 2 6 11 12 7 12 3 5 7 14 4 9 6 17 6 12 6 25 2 6 1 7 1 31 3 20v26l-2 40v10l-1 14-2 7-2 29-3 28v11l-2 10-2 31-2 10-2 15-2 12-6 17-9 17-6 10-6 7-4 4-5 6-10 10-6 5-11 6-12 6-8 3-8 2-14 2-8 1h-22l-28 2-24 5-7 2-10 4-16 6-17 3-13 3-9 1h-16l-13-1-31-8-8-4-9-3-6-1-13-2-2-1-10-1h-31l-21-1h-7l-17-3-12-5-19-10-10-6-4-4v-2l-5-2-7-7-8-10-5-7-2-5-4-4-6-15-4-8-4-13-3-9-3-13-2-10-3-20-3-13-2-12v-36l1-17 2-10v-19l1-12v-14l1-1 2-23-1-15 2-25 3-13 2-37 3-20 8-20 3-12 7-20 5-6 5-12 3-9 2-3h2l2-5 6-8 7-10 3-3 5-6h2l2-5 3-7h2l2-4 5-5 5-3 10-10h2l2-5 7-3 5-5 6-4 9-5 6-5 21-11 10-6h2v-2l9-4 10-3 16-5 17-4 12-1 15-3h21zm-44 25-15 2-15 5-11 5-8 6-13 11-8 7-5 6-6 5-4 5-12 9-8 7-5 2-3 3-14 7v2l-7 2-3 3-6 3-16 12-4 5-4 4-8 10-4 11-5 18-1 6v101l-1 11-3 12-6 35-4 15-7 26-5 30-1 7v20l4 23 5 21 3 10 11 32 11 22 5 9 5 6 3 6h2l2 4 4 5 5 5 11 10 10 6 9 4 12 5 16 2 23-1h28l15 3 18 7 8 4 20 9 17 6 5 1h20l13-4 15-6 8-5 11-8 6-4 3-3 8-5 17-10 9-4 2-1 22-2 3-1 42-2 9-2 2-3 7-3 6-5 5-3 6-8 2-1 5-13 4-5 3-9 3-6 6-20v-2h2l4-10 6-19 4-23 2-5 4-32 2-19 4-36 4-39 4-26 1-20v-18l-2-18-4-15-7-15-12-23-7-10-9-13-6-10-7-11-8-11-8-12h-2l-2-4-16-16-8-7-6-5-11-6-16-8-17-6-22-5-12-3-21-3-23-5-17-5-13-5-12-5-14-5-15-3z" fill="#1D1A2A"/>
<path transform="translate(699,410)" d="m0 0h2v2l3-1 5 11 1 2 1 9 1 1 3 18v67l-1 193-2 7-5 13-6 8-8 6-7 4-12 4-10 1-13-2-16-8-1-3h-2v-2l-4-2-1-3-4-2v-2h-2l-5-5-5-3v-2l-5-1v-2l-5-1h-18l-8 4-1 2-6 2v2l-6 5-1 3h-2l-2 4-14 14h-2v2l-7 5-10 4-9 2h-13l-9-2-13-6v-2l-5-2-2-1v-2h-2v-2h-2v-2h-2v-2h-2l-8-10-6-9-3-3 1-5 5-4h7l16 10 7 4-1-8-5-12-1-8-2-1-1-4h-2l1-9 2-6 4-6 7-9 5-5 5-9 7-9h2v-5l4-5 5-3 4-12 10-12 6-8 7-6 6-11 4-5 3-3 3-5 6-5 8-14 10-12 4-4h2l1-3h3l1-3 2-1 1-3h2v-2l4-3 6-2 3-5 8-10 4-6h2l2-5 6-7 2-7h2v-2l8-2 4-2 2-4v-5l-4-1 1 3-9 1-2 1h-7l-5-5v-10l6-4h6v3l-8 1 1 8 1 1h6l3-1v-6l2-1v3l5-1h11l10 8 12 12 5-1 3 2 2-7v-23l-2-9 2-5h2v-2h2l-1-5h2l-1-3 2-6 4-2z" fill="#399EDD"/>
<path transform="translate(499,258)" d="m0 0h24l19 1 19 4 18 6 13 6 7 3 12 6 11 7 15 11 14 12 4 7 3 8 2 4-1 4-5-2-9-6-12-6-5-3-6-5-2-1v-2l-5-2-12-6-9-3-10-2h-15l-7 1-13 1-2 2-6 2 12 5 1 3h4v2l5 2 3 6-8 13-6 8h-2v8l-4 4-5 1-1 14-7 1-7 12-12 15-3 6-8 7-3 7-6 2h-2l-2 6-4-2-9-11-11-6-12-3-14 2-9 5-12 12h-2l-3 12-2 7-3 7-1 13v16l3 10 2 13 2 3 1 6-2 2-2 5-4 6-3 10-13-1-7 5-3 1h-12l-4-2-3-5-1-10-7-8-8-4-33 1 1 2 9 2-2 1 2 8 1 19v16l1 22-1 28v24l1 15-2 12v24l2 15 4 11 5 14 7 8 10 6 7 3 3 7 4 3-5 2v2h-10l-10-2-1-2-8-3-5-3v-2l-4-2-4-5-3-3-2-3v-4h-2l-3-7-1-5-2-37v-210l1-26 1-2 1-10 4-16 4-13 6-13 3-9 8-15 3-4 1-4h2l2-5 10-14 11-13 4-5 8-7 4-2v-2l5-4h2v-2l4-1v-2l6-4 13-8 10-6 14-7 30-10 20-4z" fill="#A54CFB"/>
<path transform="translate(653,318)" d="m0 0 6 4 4 5v2h2l11 15 3 5v3h2v2h2l3 6v3h2l1 5h2l3 8v4h2l3 9 3 7 4 12 2 7v6l-2-4-2-5h-3l-1-1-2 2h-3v6l-1 3h-2l1 5h-2v2h-2l-1 6 2 9v23l-2 7-6-2-3 1-15-15-7-5h-16l-1-2-1 6-3 2h-6l-2-2v-8l2-1h6v-3l-8 2-3 2v10l4 4h7l6-2h4v-2l5 1-1 7-3 4-5 2h-6v2h-2l-1 7-8 10-5 6-4 6-7 8-3 5-9 3v2l-2 1v3l-3 1-1 2-3 1-3 4-5 5-9 10-8 14-4 4h-2l-2 5-7 8-6 11-10 9-7 10-6 7-4 12-3 3-3 1-3 4-1 5-5 5-6 9-3 5-4 2-2 5-8 10-2 3v5h-2l-1 9h2v3l2 1 3 7 6 18-1 4-6-2-14-9-5-4v-2h-2v-2l-6-2-5-5-7-5-3-3-6-3-1-4 5-5 5-8 3-2 1-8 6-10 3-6 4-2 1-2h2l2-4 7-10 4-6 9-10 3-7 2-3 4-2 8-10 2-1 1-5 5-5 1-2h4l1-7 7-6 4-1 2-5 5-4 2-4 5-4 4-10 5-5 2-9v-6l-4-10-2-9-4-5-5-19 2-6 1-16 1-7 3-12 4-9 4-6h2l1-3h2l1-3 16-6h7l8 6 10 6v2h2l6 9 4-11 8-1 4-2 6-11 5-4h2l3-9 2-4h4v-5h2l1 3 2-3 5 1 3 2v-7h-2l-3-8-1-5h-2l-1-5h-2l-5-8-3-2-3-5-2-12v-8l1-2h-2v-2l6 1 10 5 9 6 5 2v-5l-4-6z" fill="#637CEA"/>
<path transform="translate(481,200)" d="m0 0h26l7 1 1 1h7l10 1 23 2 19 5 12 3 5 2 10 3 26 13 9 3 6 3 5 2v2l5 2 8 7 7 3 8 5 3 1v2l4 2 4 5 20 20 4 7 5 7 2 5 5 6 2 1 3 6 4 5 3 6v2h2l4 6 2 7h2l7 11 6 10 1 8 7 12 6 13 5 21 2 9v36l-3 26h-2v13l-1 13v24l-4 19-1 21-1 2 1 7v12l-1 14v6l1 2v36l-2 15-2 11-2 14-6 21-6 15-5 8-4 4-3 6-9 10-8 7-5 2v2l-15 10-12 4-17 4-20 2h-22l-9-1-6-2v-1h-15l-25 6-5 5-5 2-2 2h-3v2l-16 6-3 3-18 5-12 2-12-1-16-4-8-3v-2l-18-6-9-4-11-5-6-2-14-2h-29l-16 1h-14l-12-2-18-8-7-2-10-7-5-4-7-8-7-7-4-2v-3h-2l-7-10-4-11-5-13-7-14-2-10-4-13-3-7-4-14-1-11-6-26v-27l2-17 5-25 1-11 5-34 2-9-1-8v-14l2-8 3-22 2-20 2-14 1-3 2-26v-15l2-16 3-8 3-17 3-7 8-11 3-1 2-4 2-3h2l1-3h2l1-3 6-2 2-4 8-6 4-4 4-2 5-5 8-5 4-3 3-1 5-8 7-6 11-7 6-3 6-7 9-5h2v-2l7-3 9-8 8-6 4-1 12-6 24-4zm-22 7-15 2-15 5-11 5-8 6-13 11-8 7-5 6-6 5-4 5-12 9-8 7-5 2-3 3-14 7v2l-7 2-3 3-6 3-16 12-4 5-4 4-8 10-4 11-5 18-1 6v101l-1 11-3 12-6 35-4 15-7 26-5 30-1 7v20l4 23 5 21 3 10 11 32 11 22 5 9 5 6 3 6h2l2 4 4 5 5 5 11 10 10 6 9 4 12 5 16 2 23-1h28l15 3 18 7 8 4 20 9 17 6 5 1h20l13-4 15-6 8-5 11-8 6-4 3-3 8-5 17-10 9-4 2-1 22-2 3-1 42-2 9-2 2-3 7-3 6-5 5-3 6-8 2-1 5-13 4-5 3-9 3-6 6-20v-2h2l4-10 6-19 4-23 2-5 4-32 2-19 4-36 4-39 4-26 1-20v-18l-2-18-4-15-7-15-12-23-7-10-9-13-6-10-7-11-8-11-8-12h-2l-2-4-16-16-8-7-6-5-11-6-16-8-17-6-22-5-12-3-21-3-23-5-17-5-13-5-12-5-14-5-15-3z" fill="#2B203F"/>
<path transform="translate(491,229)" d="m0 0h13l18 2 11 5 25 7 17 3 16 3 8 3 12 3 5 5 3 2 1 3-2 4 5 4h3v2h2l1 5 8 5v2l5 2 3 2 1 3 5 3-1 2-9-5-11-6-8-5-3-3-5-3-16-5v-2l-7-1-10-5v-2l-5-1-18-6-10-2-28-3h-24l-14 1-7 2-11 1-9 3-12 3-6 4-6 3-14 5-8 4h-3l-1 3-7 5-10 5-9 8h-2l-2 4-3 1-1 3-4 4h-3l-2 5-6 5-1 2h-2v2h-2v2l-6 4-5 5-10 18-4 4h-2l-1 7-4 4-4 17-6 9-5 12-3 23-2 19-2 13-1 4-1 20 1 4-2 3v18l1 12-1 10 1 18 1 4v38l-1 14v12l1 7-1 8-1 21 1 12v9l4 17 1 2 2 17 3 6 3 13 8 11 7 7 2 1v2l4 1 5 4 11 3h26l12-2 2-2 9-3 15-4 4-1v-3l4-2 4-8 4-4-1-2h8l12 5 6 5v2l3 1 4 5 10 8 2 2 5 2 6 6 14 6 6 1h19l13-5 7-3 6-5 11-7 5-2 2-4 5-5 4-5h2l1 3-2 4v2h2l1 2 3 1v2l4-1h8l1 1v5l-9 3-7 5v2l-12 5-18 6v2l-3 1 8 3v2l-6 3-3 2-11 1-7 3-8 1-7 2h-10l-2-2v2h-6l-1-1-11-1-8-8-6-1-4-4-2-1-2 4h-10l-9-3v-2l-3 1-12-4-14-1h-26l-12 1-7 1-7-2-16-2-7-1-11-6-10-9-7-8-5-7v-2h-2l-5-6-3-8-4-11-1-8-4-7-4-9-3-26-2-5v-13l1-13 1-6-1-13-1-32 1-5-1-8 1-9-1-1 2-45 1-11 4-20 2-16 1-31 2-18 1-2 1-13 3-9 5-9 6-11 2-8 4-11 9-13 8-15 5-5 3-1v-2l3-3 4-6 4-2 2-3h2l2-4 11-11h2l2-4 8-9 14-9 10-7 9-6 16-6 11-3 11-5 3-2 16-2 3-2h3v-2l7-2z" fill="#773EB4"/>
<path transform="translate(492,172)" d="m0 0h16l6 1h17l18 1 12 3 10 3 16 3 12 2 14 5 9 6 13 3 8 4 14 5 4 3 5 3 3 8 24 12 7 5 6 9 7 2 1 6 11 4 2 6v2l6 1 3 3 3 8 5 8v12l9 9 1-2h2l7 12 2 8 6 9 3 6 1 4h-2l3 8 2-1 2 8 5 8v2l3 1 3 14-1 4 2 8 2 3 4 11 2 11v22l1 10 2 6 1 5v31l-3 26h-1v-7h-2v13l1 5 1 2-1 27-3 21h-1l-1 25-2 10v20l-2 9h-2v7l-2 9-2 13-3 16v11l-2 5-2 9-5 16-6 12-3 4-1 7-5 5 4 2-7 7-3 5h-2l-2 7-8 5-7 8-3 2v-2l-6 1-3 4h2l-1 3-3 1-2-2-11 3-11 5-20 4-8 1h-28l-17 2-7 4-10 3-10 2-9 3-21 6-2 2h-2l-2 2-9 2-16 6-9 1-2 1h-12l-6-2-2-1-17-1-6-1-2-2-18-3-10-3-6-3 1-2-7-3-16-3-5 1-33-1-2-1-5-1h-8l-2 2h-12l-25-4-7-3-6-3-2-4-12-6-5-2-6-2-1-4h-2l-1 2-10-8-5-5-3-5-3-2v-3h-3l-5-9-6-7-4-10-3-5-1-5h2l-5-9-3-7-3-3-3-11-3-14-2-4v-13l1-6-3-12-2-12-3-3-1-14v-39l2-13-1-2 1-9-1-6 1-2 3-24 3-10v-17l-2-12-1-11 2-6 2-5v-11l2-6 1-11 1-9-1-23 1-12 3-8 3-9 2-3 2-5 1-9 5-10 3-11 6-12 10-19 2-3 2-6 4-8 1-5 3-6 5-4 5-5 5-7 3-8 14-15 6-4 10-8 6-4 10-6h2v-2h2l2-4 8-6 3-3 5-3 5-5 15-7 6-3 8-6 12-2 9-3 4-2 28-7 21-1 15-2zm11 10-2 1h-21l-15 3-18 2-25 7-7 3-9 3-5 2v2l-5 2-16 9-14 7-5 5-8 4-8 5-4 5-6 2-2 5-4 2-7 6-3 3-7 5-3 4v2h-2l-5 10v2l-4 2-3 4-6 7-6 8-6 9v2l-3 1-3 10-4 7-3 8-4 4-8 23-3 12-7 17-3 22-2 35-3 13-2 26 1 18-2 19-1 3v12l-1 12v19l-2 10-1 26v27l5 25 4 28 2 5 4 18 3 6 2 9 7 14 4 10 4 4 5 9 8 9 7 8 4 3h2l2 5 18 10 19 10 9 3 14 2h13l25 1h21l10 1 18 4 6 1 9 4 16 5 21 5 12 1h16l14-2 11-3 18-3 8-4 4-1 10-4 26-6 17-2 26-1h17l8-2 9-1 16-5 14-7 9-5 7-6 7-8 6-5 3-5 5-4 6-8 5-10 8-15 6-19 2-12 2-17 1-4 2-31 2-12v-9l4-40 1-17 2-7 1-20 1-27 1-24v-19l-2-16-1-4-1-31-2-10-4-14-4-17-5-9-7-20-4-8-4-7-2-5-3-5-7-12-7-7-5-6-3-10-4-5-1-3h-2l-2-4-7-8-2-4-6-4-14-13-1-3-5-2-12-10-18-12-8-4-7-4-2-2-9-3-10-4-13-4h-2v-2l-15-6-16-4-11-2-5-1-13-3-3-1-18-3v1h-7v-1z" fill="#191720"/>
<path transform="translate(467,166)" d="m0 0h22l1 4 9-2 11 2 10-1 14 1 3 1h15l9 2v2l10 1 3 1 9 1v2l11-3-2-2 16 2 6 3 1 1 5 1 1 3 9 3 5 2v1l-13-1v2l6 2 8 1 4 3 2-2-6-4 3-1 8 4-1-2 5 1 6 4 5-1h3l2 6 4 2 1 3-1 2-3 1 3 6 6 4 1 2 7 2 4 3 6 3 7 5 6 7v3l5 1 5 6 10 4h4l6 4 3 4v2l2 1 5 10v3h-2l-3-3 5 9 4 9 7 8 3 3 1-2 3 6 2 7 5 5 4 7 3 4v5h3l4 7 2 3 6 17-2 1v-3l-1 1 3 17 2 10-1 4 3 6 3 3-3-6v-8l2 2 1 7 4 7 1 15v9l-1 5v21l2 4 1 6 2 2 1 11 2 6-1 5-3 5-2 14-1 2-2-1 1 18-1 14v31h-2l-1 8-3 3v34l-1 1v11h1v9l-4 18v16l-5 33v21l-3 6-4 10-3 5-3 7-3 5-2 6-5 4-3 5-3 2-4 7-3 3-6 2v2l-8 7-11 9-10 6-3 2-9 3-3 2-6 1-10 3-10 1-2-2-17 2-11-1h-9v1l-15 2 1 2-7 1-10 1-3 2h-9l-6 3-11 2-1-2v3h-7v2l-4 1-5-1-8 2 1 3-5 4-7 2h-11l-7 4h-6l-3 2h-17l-4-2 4-1h12l-16-2-8-3-16-1v2l-10-1-2-2h5l1-1-16-4-1 4-5-2-1-3-7-1-1-2 5-1-30-6-9 2h-20l-3-1-1 2-4-1h-7v-4h-9-4-9l-6-2h-9l-6-3v-2l-7-2-8-8h-6l-2-2v-3l-6-2-4-2-2 2-5-3v-2l-5-2-4-2-1-2-3-1-2-4-7-6-3-6-4-4-2-6-4-2-1-5-3-3-2-9-4-8-1-10-3-4-2-3-1-5-3-10v2 2h-2l-2-4-3-15 2-3-1-8 1-7-1-8v-5l-3-3-3-4v-3l-2-1 1-13-1-6 1-2-1-5-2-1 1-9 2-10 1-16v-13l-2-4v-7l2-2 1-12 1-7 1-4 1-6-1-2h2v-14l-3-17v-5h-1v-5-2-8l3 1 1-20-1-2 2-3h2l1-6h2l1-3v-10h-1v-13h-1v-7l-2 5h-1l-1-8h1l2-12 2 1v3l1-18 4-4 6-16 2-4 3-9 3-12v-7l3-4 2-9 4-6 3-7 3-9 2-1v2l4-1 2-4 3-4v-2h-3l2-4 4-1 2-7 3-4h3l2-7 3-2 2-6h2l-1-4 4-5 2 1 3-2 8-6 4-2 3-4 5-2 7-6 1 2 10-7 6-2 1-2-8 2-4 4-2-1 8-8 7-1 1-1 2-1v2l5-4h-3l2-6h2v-3l2-1-2-1 9-4 2-2 8-2-1-5 4 1 3-2h6l-1-2 10-4 4-1 3 1 1-2 7-1v2l-8 3h7l6-4 10-4 7-2h7l5-3 8-1-2-2 16-3zm25 6-4 2-15 2-21 1-12 3-18 5-9 3-5 2-9 1-8 6-24 12-5 5-4 2-4 5-5 3-2 4h-2v2l-6 2-10 7-6 4-8 7-5 3-8 8-5 6-4 10-4 5-5 5-6 5-3 8-3 9-2 2-2 7-6 10-6 12-6 13-3 11-4 7-2 12-2 5-2 3-4 12-1 2-1 16 1 19-1 9-2 16-1 1v12l-3 5-1 10 2 15 1 5v16l-3 9-1 11-2 13-1 5 1 4-1 9 1 4-2 13v42l2 10 2 1 4 21 1 6-1 4v12l4 11 3 14 2 6 4 4 3 8 3 5h-2l1 5 4 7 4 10 6 6 4 8h3l1 4 3 2 3 5 5 5 6 4 3 3 1-2h2l1 4 6 2 15 7 7 7 8 3 12 3 15 2h13l1-2h10l5 1v1l36 1 2-1 16 3 7 3-1 2 9 4 12 3 13 2 5 3h11l9 1 3 2 5 1h12l2-1 9-1 11-4 8-3 7-2 2-2 2 1 1-2 21-6 9-3 12-3 11-3 4-3 17-2h28l19-3 11-3 9-4 12-3 2 2 3-2v-2h-2l3-4 6-1 1 2 13-13 4-2 2-7 4-2 3-5 5-6-4-1 5-5 1-7 4-6 6-12 4-14 2-9 2-5v-13l4-18 2-15 1-3v-7h2l2-10v-19l2-12 1-23h1l3-21 1-29h-1l-1-6v-12h2v7h1l3-26v-31l-2-9-1-2-1-17v-15l-3-15-4-10-2-2-1-7 1-3-3-14-3-1-6-12-1-6-2 1-3-8h2l-1-4-6-11-4-6-2-8-6-10h-2l-2 2-6-8-2-1v-12l-6-9-2-7-3-3-6-1-1-7-7-3-5-2-1-6-8-3-7-10-8-5-5-2-16-8-2-6-3-4-6-3-12-5-10-4-15-5-11-6-11-4-12-2-24-5-4-2-10-2-20-1h-17l-5-1z" fill="#17161A"/>
<path transform="translate(499,258)" d="m0 0h24l19 1 19 4 18 6 13 6 7 3 12 6 11 7 15 11 14 12 4 7 3 8 2 4-1 4-5-2-9-6-12-6-5-3-6-5-2-1v-2l-5-2-12-6-9-3-14-7-4-3-11-4-11-3-18-6-16-2h-27l-17 2-12 4-9 4-10 3-32 17-11 7-11 10-5 3-5 5-6 7-3 3-7 10-4 6-5 6-7 10-11 26-4 10-2 12-4 15-3 17-1 23-1 5h12l11-12 7-8 7-7 3-2 6-1h9l2-4 5-3h6l5 4 1 2v8l-4 5-2 1h-7l-5-4-3-3h-9l-9 7-7 7-7 8-6 4-3 3h-11v8l3 1h33l5-5 3-2 9 1 4 5v8l-4 5-2 1h-7l-4-3v-3l-9-1h-33l1 10h-9l1 2 9 2-2 1 2 8 1 19v16l1 22-1 28v24l1 15-2 12v24l2 15 4 11 5 14 7 8 10 6 7 3 3 7 4 3-5 2v2h-10l-10-2-1-2-8-3-5-3v-2l-4-2-4-5-3-3-2-3v-4h-2l-3-7-1-5-2-37v-210l1-26 1-2 1-10 4-16 4-13 6-13 3-9 8-15 3-4 1-4h2l2-5 10-14 11-13 4-5 8-7 4-2v-2l5-4h2v-2l4-1v-2l6-4 13-8 10-6 14-7 30-10 20-4z" fill="#BB87F4"/>
<path transform="translate(487,193)" d="m0 0h23l26 2 7 2 17 2 6 2 18 3 9 3 16 6 7 3 8 3 4 1 3 3 13 6 10 4 3 2v2l9 3 5 5 12 9 3 3v2l4 2 7 8 10 7 9 10 10 17 2 5 2 4 7 9 5 6 4 12 6 11 4 6 9 22 5 5 8 27 2 7 2 21v64l-1 13 1 5-1 4v28l-2 18-2 23-2 16-4 28-3 6-2-4v-14l-1-5v-10l1-14v-7l-1-6 1-3 1-19 4-21v-22l2-26h2l1-15 1-11v-36l-7-30-9-19-4-6-2-10-7-11-4-6v-2h-2l-5-10-1-3h-2l-6-11-4-5v-3l-4-2-5-6-3-7-6-8-3-5-18-18-5-6-2-1v-2l-5-1-6-4-8-4-7-6-5-3v-2l-9-2v-2l-10-2-8-5-15-7-8-3-5-1-4-2-9-3-21-5-13-2-18-1-5-1h-8v-2h-33l-27 1-24 4-14 7-5 2-11 9-6 5h-4v2l-11 6-7 8-12 6-9 7-4 5-3 5-6 3-3 3-6 3-5 5-5 3h-2l-2 4-8 6-3 3-4 2-4 5-5 5-7 8-6 9-3 13-2 10-2 6-2 20v14l-2 23-3 16-1 13-1 10-4 26-1 2v14l1 8-4 22-4 29-2 14-4 20-1 11v28l6 25 2 16 5 15 4 9 3 13 3 9 7 14 5 15 6 9 1 3h2v3l5 2 18 18 10 7 14 5 8 4 6 2 9 1h22l8-1h29l18 3 9 4 11 5 3 2 9 3 8 3v2l7 1 5 2 12 3 13 1 11-2 18-5 3-3 14-5h2v-2l5-3 6-3 4-4 25-6h16l3 2 2 1 15 2-3 2-8 3-18 3-11 3-9 2-16 4-10 4-14 4-7 3-14 3-24 2-12-2-8-1-11-5-16-4-10-4-15-4-7-2-10-1-10 1h-35l-7 1-17-1-3-1-9-1-5-4-3-3-9-2-14-7-6-5-5-5-4-5-2-1-4-7-7-8-4-6-4-4-4-15-5-8-3-9-2-9-3-9-1-7-2-7-3-12-1-16-2-2-3-21-1-10 1-19 1-1 1-18v-18l-1-9 3-21 2-16 2-18v-20l1-31 5-35 3-18 5-9 3-4 5-20-2-1 2-4 3-13 3-7h2l3-15 4-8h2l2-5 5-5 4-6 7-6 5-5 4-5h2l2-5 5-6 7-6h2v-2l9-7h2l2-5 7-6h2l1-3 8-4 9-6 7-6 11-6 16-8 4-3h2v-2l15-7 14-3 8-3 13-2 23-2z" fill="#251D35"/>
<path transform="translate(643,456)" d="m0 0h12l5 4 2 1v2l4 1 2 2 1 6 3 1v3h2l2 4-4 3h-3v2h-2v2l-5 3-3 3-7-3h-6l-4 3-1 5 2 7 5 2v2h3l1 2v8l-8 4-4 9-3 8-8-1-3-3-9 1-3 4v7l4 5v2h6v4l-3 2-4 11-10 12h-2l-1 4-4 3-4 7-5 6-5 5-6 8-11 14-8 11-7 13-5 6h-2l-2 5-7 11-4 5-7 9-6 11-4 5-1 5 3 4-1 2 11-4h3l-1 4-7 6-3 3h-2l-1 3h-2v2h-2l-1 4h-2v2l-9 4-6-2-5-3-7-8-1-9-5-12-1-8-2-1-1-4h-2l1-9 2-6 4-6 7-9 5-5 5-9 7-9h2v-5l4-5 5-3 4-12 10-12 6-8 7-6 6-11 4-5 3-3 3-5 6-5 8-14 10-12 4-4h2l1-3h3l1-3 2-1 1-3h2v-2l4-3 6-2 3-5 8-10 4-6h2l2-5 6-7 2-7h2v-2l8-2 4-2 2-4v-5l-4-1 1 3h-8z" fill="#508BE3"/>
<path transform="translate(496,249)" d="m0 0h24l28 3 10 2 23 8 1 2 12 5 4 1v2l10 2 9 4 5 3v2l5 2 9 5 16 9 8 10 5 5 10 8 7 10 2 1 4 8 9 11 8 16 4 9 6 7 4 17 1 14 1 5 2 16v42l2 1v33l-3 10v2h-2l-1 5h2l-1 11-1 22-1 135-2 3-1 10h-1v-258l-3-18-1-1-1-9-2-9-2-7-6-18-3-5v-5h-2l-3-8v-4h-2l-1-5h-2l-3-6v-3h-2v-2h-2l-5-9-9-12v-2h-2l-6-8-6-5-4-5-11-9-14-10-11-7-15-8-6-2-16-7-13-4-19-4-19-1h-24l-16 1-23 5-21 7-12 5-15 8-16 10-4 3h-2v2l-4 1v2l-5 4h-2v2l-8 6-2 3h-2l-2 4-8 9-10 13-7 11h-2l-1 5-7 12-5 11-4 10-5 13-4 14-2 9-1 10-1 2-1 26v210l2 37 2 7 1 5h2l3 9 3 1 5 6 2 1v2l5 2 9 4v2l10 1h10l12-2 3-2h3v-2l9-5 5-4 6-2 5-4 14-7h6v2l2 1-2 4-3 2v3l-6 5h-2v3h7v1l-11 1-15 4-8 3-3 2-13 2h-25l-11-3-6-5-3-1v-2l-4-2-7-7-7-10-4-15-2-4-2-17-3-9-2-11v-12l-1-14 1-19 1-6-1-8v-15l1-13v-35l-1-2-1-24 1-9-1-12v-13l2-3-1-4 1-20 1-7 2-13 3-21 2-18 5-12 6-9 4-17 4-4 2-7 4-4h2l2-6 5-8 3-5 8-7 3-1v-2h2v-2h2l2-4 5-4 2-4h3l2-4 7-6 5-5 8-7 12-6 5-5 21-9 9-3 3-3 4-2 12-3 9-3 15-2 5-1z" fill="#8646C9"/>
<path transform="translate(670,567)" d="m0 0 5 1 8 8 4 5 4 19 2 8 1 14 1 3 2 25-3 40-4 13-5 11-4 6-8 5-3 1h-12l-9-2-15-9-8-5-10-7-1-4-5-2-4-4-9-4-1-3-8-4-1-5-4-2 2-12 7-8 5-5 8-7 3-5 6-9 3-3 4-6 5-5 10-14 3-3 11-17 7-8 3-4 9-1z" fill="#1DBFD5"/>
<path transform="translate(539,497)" d="m0 0 4 2 3 13 3 7v8l-3 7-3 4h-2l-1 5-3 6-3 3h-2l-2 5-9 9-8 6-2 7h-4l-2 5-4 4-1 4-5 5-6 7h-3l-2 5-3 6-9 10-7 11-6 8h-2l-2 4-3 1-3 7-6 11v5l-5 4-5 9-3 3 1 3 8 4 4 4 5 4v2l5 2 4 2v2h2l1 3-7 1-3 4-1 4 7 8 3 5 6 7v2h2v2h2v2h2v2h2v2l5 2 2 1v2l4 1 9 4 9 2h13l9-2 10-4 5-4h2v-2l8-7 5-5h2l3-6h2l1-4 4-4h2v-2l3-2h3l1-3 8-4h18l5 2v2l5 1v2l5 2 5 4v2h2l7 8 2 1v2l2 1-4 1-9-4-13-10-3-1h-18l-9 4-6 2-5 6h-2l-2 4-4 4-17 11-4 4-13 5-6 2h-19l-9-2-12-6-6-6-5-2-9-8-6-5-5-6-10-6-6-2-14-1-14 7-6 5-6 2-10 7h-3v2l-6 3-12 1 4-3-4-3-2-4v-3l-9-3-10-7-6-7-4-11v-2l5 2 6 5 7 4 9-1 4-4 10-3 7-5 5-1 1-3 10-7 11-8 11-4v-4l1-5-3-3 1-2-1-3 4-6 5-11 8-10 5-10 8-8 4-6 3-7 6-7 5-9 7-10 10-13 8-6 9-15 6-7 3-5 4-4 4-5 5-5 5-7 5-5 6-8z" fill="#898AEA"/>
<path transform="translate(450,203)" d="m0 0h30l19 2 8 3 16 2 22 1 18 4 14 5 14 4 25 8 14 7 16 6 8 6v2l5 1 3 3 9 4 5 3 5 5 4 5 11 9 3 3v2h2l7 8 3 7 2 7 6 8 10 15 3 5v3l3 1 11 17 5 7 6 12 6 9 6 14 4 17 2 15v33l-4 38-2 11-3 25-3 20-1 16-3 13h-1l1-13 4-36 4-39 4-26 1-20v-18l-2-18-4-15-7-15-12-23-7-10-9-13-6-10-7-11-8-11-7-10v-2h-2l-7-8-11-11-8-7-6-5-11-6-16-8-17-6-22-5-12-3-21-3-23-5-17-5-13-5-12-5-14-5-15-3-17-1-15 2-15 5-11 5-8 6-13 11-8 7-5 6h-2l-1 3-5 5-10 8-11 9-6 3-3 3-12 6h-2v2l-8 4-5 3-11 8-7 5-2 3h-2l-1 3h-2l-2 5-7 8-4 11-5 18-1 6v101l-1 11-3 12-6 35-4 15-7 26-5 30-1 7v20l4 23 5 21 3 10 11 32 11 22 5 9 5 6 2 6h2l6 8 5 5 11 10 10 6 9 4 12 5 16 2 23-1h28l15 3 18 7 8 4 20 9 17 6 5 1h20l13-4 15-6 8-5 11-8 5-3 4-4 8-5 10-6h4l3 5 9 3-3 2-7 3v2l-25 6-5 5-5 2-2 2h-3v2l-16 6-3 3-18 5-12 2-12-1-16-4-8-3v-2l-18-6-9-4-11-5-6-2-14-2h-29l-16 1h-14l-12-2-18-8-7-2-10-7-5-4-7-8-7-7-4-2v-3h-2l-7-10-4-11-5-13-7-14-2-10-4-13-3-7-4-14-1-11-6-26v-27l2-17 5-25 1-11 5-34 2-9-1-8v-14l2-8 3-22 2-20 2-14 1-3 2-26v-15l2-16 9-27 6-11 5-5 5-6 5-5 6-3 4-5 11-6 3-4 14-7h2v-2l6-3 8-7 5-5 4-1v-2l10-7 5-2 2-4 4-5 8-6h2v-2l4-3h2v-2l5-3 1-2 15-9 16-6z" fill="#312249"/>
<path transform="translate(718,401)" d="m0 0 3 2 2 9 3 4 3 11 2 2 3 10 1 3 1 5 1-7h3l1-4 2 10 3 9-2 2-5 1-2-1 1 3v22l2 11v8l1 3 1-2h2v5l1 4 4-1 1 6 2 3 1 8-2 17-2 4h-2v8l-2 3-1-1-2 6h-1v6h1v10l1 3 1-7h1v8l-1 6 2 7 1-5 2-5-1-3h2v-2h3l1-10 2-2-1 14-6 34-2 17-4 14-2 15-4 10-12 28-3 10-3 2-1 7-2 2-2 7-3 2-3 7-5 5h-2l-1 3-6 3-5 4-8 3-6 1h-26l-11-2h-10l-13 4-13 5-6 4-10 7h-3l7-9 5-3 7-7-5-2-2-1-4-1v-5h-12v-2l-4-1v-2h-2l-1-4 2-3v-2l10-5 3-1h18l6 3 11 9 10 3 5 2 14 7 17 2 13-3 14-7 4-4h2l2-5 4-5 5-12 2-8 1-10 2-3 1-135 1-28 2-5h-2l1-5h2l-1-3 3-9v-33l-1-1-1-42-2-16-2-15z" fill="#5A64A9"/>
<path transform="translate(493,275)" d="m0 0h27l16 2 20 7 16 4 14 8 5 3-4 1-3-1h-15l-7 1-13 1-2 2-4 1h-10l-10-2h-12l-5-1h-19l-21 4-21 7-2 4-8 3-11 8-6 4-5 5-10 7-8 9-6 5-6 8-5 6-2 6-5 6-4 8-3 5-9 20-4 15-1 19-4 17v3l-11 12h-9l-3-1v-14l1-15 4-20 4-15 2-10 8-20 7-16 6-8 8-10 10-15 10-10h2l1-3 8-6 9-8 10-6 34-18 16-5 7-3 12-3z" fill="#B062F7"/>
<path transform="translate(459,207)" d="m0 0 17 1 19 4 13 5 12 5 19 7 25 6 21 3 16 3 18 5 12 3 13 5 15 8 6 3 9 6 7 7 8 7 12 12v2h2l15 22 6 9 7 11 6 9 7 10 9 15 8 16 6 13 4 15 2 18v22l-2 23-3 19-7 68-4 32-3 26-3 9-3 19-8 25-2 4h-2l-3 12-5 15-2 3-3 9-3 3-5 13-5 5-5 6-7 4-3 3-7 3-3 3-9 1-40 2-3 1-22 2-10 4-9 6-9 5-8 5-7 6-9 6-8 5-6 4-21 8-5 1h-20l-11-3-20-8-11-5-15-7-11-4-15-3h-33l-18 1-16-2-12-5-16-8-10-9-5-4-5-5-5-6v-2h-2l-5-8-5-7-10-21-3-5-8-22-4-12-5-17-6-29-1-8v-20l5-33 7-27 3-9 4-21 5-29 2-6 1-11v-101l5-22 4-10 4-7 6-7 4-5 8-7 11-8 8-5 6-3h2v-2l15-8 3-3 5-2 12-10 10-8 5-6 5-5 6-5 5-5 14-12 7-5 21-8 9-2zm-2 5-12 3-16 5-9 3-10 7-4 4-13 10-7 8-7 6-5 5-3 2v2l-5 2-8 7-2 1v2l-6 2-7 4-5 3v2l-5 1-14 9-6 4v2l-4 2-4 5-6 5-6 7-3 5-3 3-3 6-3 12-3 8-1 6v20l1 22v57l-3 24-4 18-5 23-8 30-6 30-1 7v27l8 40 7 19 4 14 6 13 9 19 7 11 10 13 14 14 6 5 10 6 16 6 3 2 15 2 22-1 9-1h12l16 2 15 4 2 2 13 5 7 4 12 5 14 5 11 2 15 1 17-3 12-5 11-6 8-6 14-11 10-8 11-8 9-5 9-3 13-4h12l9 2h26l10-2 8-5 5-3 3-2v-2l4-1 5-7 2-5 3-2 2-7 1-1 1-7 3-2 5-15 10-23 4-10 2-15 4-14 2-18 3-16 4-24 4-37 2-10 3-34 2-10 1-15 2-15v-18l-3-17-4-17-9-21-9-15-5-7-4-7-9-12-6-11-7-10-6-7-4-8-6-7-7-8-3-3h-2l-2-4-8-6-7-7-12-6-9-5-13-6-26-7-20-4-27-4-23-6-12-5-14-5-12-5-11-4-12-2z" fill="#512B7C"/>
<path transform="translate(699,410)" d="m0 0h2v2l3-1 5 11 1 2 1 9 1 1 3 18v67l-1 193-2 7-5 13-6 8-8 6-7 4-12 4-10 1-13-2-16-8-1-3h-2v-2l-4-2-1-3-4-2v-2h-2l-5-5-5-3v-2l-5-1v-2l-5-1h-18l-8 4-1 2-6 2v2l-6 5-1 3h-2l-2 4-14 14h-2v2l-7 5-10 4-9 2h-13l-9-2-13-6v-2l-5-2-2-1v-2h-2v-2h-2v-2h-2v-2h-2l-8-10-6-9-3-3 1-5 5-4h7l16 10 9 6 5 5v2l5 2 4 2 7 1h13l13-4 10-8 10-7 9-4 12-6 9-2h7l10 3 11 4 20 12 6 5 4 5 9 3h28l7-3 3-3 3-5 9-12 5-11 1-12 3-17 2-21v-52l-1-2-2-30-4-20-6-16-3-7-2-11v-5l12-2 2-1-6-2-7-2v-7l4-2 9-1 1-1-13-3-1-6 1-2 11-2 1-1-2-1-13-2-3-2-1-7 1-10v-19l-2-9 2-5h2v-2h2l-1-5h2l-1-3 2-6 4-2z" fill="#6BC5E0"/>
<path transform="translate(487,193)" d="m0 0h23l26 2 7 2 17 2 6 2 18 3 9 3 16 6 7 3 8 3 4 1 3 3 13 6 10 4 3 2v2l9 3 5 5 12 9 3 3v2l4 2 7 8 10 7 9 10 10 17 2 5 2 4 7 9 5 6 4 12 6 11 4 6 9 22 5 5 8 27 2 7 2 21v64l-1 13 1 5-1 4v28l-2 18-2 23-2 16-4 28-3 6-2-4v-14l-1-5v-10l1-14v-7l-1-6 1-3 1-19 4-21v-22l2-26h2l1-15 1-11v-36l-7-30-9-19-4-6-2-10-7-11-4-6v-2h-2l-5-10-1-3h-2l-6-11-4-5v-3l-4-2-5-6-3-7-6-8-3-5-18-18-5-6-2-1v-2l-5-1-6-4-8-4-7-6-5-3v-2l-9-2v-2l-10-2-8-5-15-7-8-3-5-1-4-2-9-3-21-5-13-2-18-1-5-1h-8v-2h-33l-27 1-24 4-14 7-5 2-11 9-6 5h-4v2l-11 6-7 8-12 6-9 7-4 5-3 5-6 3-3 3-6 3-5 5-5 3h-2l-2 4-8 6-3 3-4 2-4 5-10 10h-2l2-5 5-5 7-8 8-7 3-4h2l2-5 5-6 7-6h2v-2l9-7h2l2-5 7-6h2l1-3 8-4 9-6 7-6 11-6 16-8 4-3h2v-2l15-7 14-3 8-3 13-2 23-2z" fill="#241C34"/>
<path transform="translate(539,497)" d="m0 0 4 2 3 13 3 7v8l-3 7-3 4h-2l-1 5-3 6-3 3h-2l-2 5-9 9-8 6-2 7h-4l-2 5-4 4-1 4-5 5-6 7h-3l-2 5-3 6-9 10-7 11-6 8h-2l-2 4-3 1-3 7-6 11v5l-5 4-5 9-4 3-12-1-2-4 2-3-1-4-2-2 1-2-1-3 4-6 5-11 8-10 5-10 8-8 4-6 3-7 6-7 5-9 7-10 10-13 8-6 9-15 6-7 3-5 4-4 4-5 5-5 5-7 5-5 6-8z" fill="#716CEF"/>
<path transform="translate(693,526)" d="m0 0h2l2 8 7 17 4 18 2 20 1 16 1 2v52l-2 21-3 17-1 12-7 14-8 10-4 6-3 3-6 2h-29l-9-4-7-8-11-6-8-5-7-4-9-3-8-2-13 1-9 4-18 9-12 9-7 5-9 1 3-2 8-5 8-6 5-5 11-9 11-8 9-4 4-2h28l9 4 16 10 10 6 8 4 6 1h12l8-4 4-4 4-7 5-13 2-7 3-41-2-24-1-3-1-14-4-16v-16l2-16 1-14v-9l2-9z" fill="#48C7DB"/>
<path transform="translate(670,567)" d="m0 0 5 1 8 8 4 5 2 13h-3l-2 2-4-1-1 2-5 5-2 5h-2l-1 6-1 2h-4l1 5-3 6-8 10-5 2-1 5-6 5-5 7h-2l-2 6-6 11-1 5-1 16 3 15v3l-11-7-2-5-5-2-4-4-9-4-1-3-8-4-1-5-4-2 2-12 7-8 5-5 8-7 3-5 6-9 3-3 4-6 5-5 10-14 3-3 11-17 7-8 3-4 9-1z" fill="#23B1D6"/>
<path transform="translate(614,536)" d="m0 0 3 1-3 4v7l4 5v2h6v4l-3 2-4 11-10 12h-2l-1 4-4 3-4 7-5 6-5 5-6 8-11 14-8 11-7 13-5 6h-2l-2 5-7 11-4 5-7 9-6 11-4 5-1 5 3 4-1 2 11-4h3l-1 4-7 6-3 3h-2l-1 3h-2v2h-2l-1 4h-2v2l-9 4-6-2-5-3-7-8v-5l7-8 2-4 7-16 5-8 3-9 8-10 6-8 5-7 5-4 10-15 12-15 5-8 4-5 8-11 7-8 9-11 14-15 5-6 4-11 2-7z" fill="#4793E1"/>
<path transform="translate(450,205)" d="m0 0h26l21 5 17 6 9 3 14 5 4 2 10 2 12 4 15 2 24 4 9 3 19 5 17 6 14 8 8 4 3 3 3 1 4 5 11 9 5 5 10 11 7 10 6 9 8 11 6 10v3l3 1 11 17 5 7 6 12 6 9 6 14 4 17 2 15v33l-4 38-2 11-3 25-3 20-1 16-3 13h-1l1-13 4-36 4-39 4-26 1-20v-18l-2-18-4-15-7-15-12-23-7-10-9-13-6-10-7-11-8-11-7-10v-2h-2l-7-8-11-11-8-7-6-5-11-6-16-8-17-6-22-5-12-3-21-3-23-5-17-5-13-5-12-5-14-5-15-3-17-1-15 2-15 5-11 5-8 6-13 11-8 7-5 6h-2l-1 3-5 5-10 8-11 9-6 3-3 3-12 6h-2v2l-8 4-5 3-11 8-7 5-2 3h-2l-1 3h-2l-2 5-7 8-4 11-5 18-1 6v101l-1 11-3 12-6 35-4 15-7 26-5 30-1 7v20l4 23 5 21 3 10 11 32 11 22 5 9 5 6 2 6h2l6 8 5 5 11 10 10 6 9 4 12 5 16 2 23-1h28l15 3 18 7 8 4 20 9 17 6 5 1h20l13-4 15-6 8-5 11-8 5-3 4-4 8-5 6-4 3 1-11 8-4 3h-2v2l-8 5h-2l-2 4-18 10-9 4-7 3-10 2h-22l-13-3-12-6-20-8-8-5-12-4-19-3-18-1-27 3h-7l-13-3-10-4-18-9-5-4-5-5-10-9-6-7v-2h-2l-10-15-8-17-8-15-5-16-4-13-2-3-4-14-3-17-4-21v-20l4-26 6-29 4-13 4-22 3-16 2-18 2-16v-10l1-5v-15l1-4v-62l5-21 3-10 7-13 4-4 7-8 6-5 8-6 7-5 5-1v-2l10-6 6-3 15-9 5-5 8-6 5-2 2-5 5-3 5-6 5-5 11-10 10-8 8-5 13-6z" fill="#40235F"/>
<path transform="translate(444,416)" d="m0 0h14l4 2v2h3v2h2v3h2l5 10v5h2v8h2v31l-2 8h-2v5h-2v4h-3l-2 6-2 3-4 1-1 2h-4v2h-12l-4-2v-3h-3l-5-5v-2h-2v-3h-3l-1-10h-2v-8h-2v-28l3-8 1-5h2v-4h2l1-5 7-6h2v-3h4z" fill="#25354B"/>
<path transform="translate(564,416)" d="m0 0h13l8 4v3h2v2h2l1 3 2 1v4h2l2 5 1 8 1 1v32l-1 1-1 8-2 4h-2l-1 5-3 2-3 6-4 1-1 2h-3v2h-13l-6-4-3-5-4-4-3-4v-4h-2v-6h-2l-2-8v-24l4-14h2v-5h2l1-5 2-3h2v-2l3-1 2-3h4z" fill="#25354A"/>
<path transform="translate(593,270)" d="m0 0h5v2l10 2 9 4 5 3v2l5 2 9 5 16 9 8 10 5 5 10 8 7 10 2 1 4 8 9 11 8 16 4 9 6 7 4 17 1 14 1 5 2 16v42l2 1v33l-3 10v2h-2l-1 5h2l-1 11-1 22-1 135-2 3-1 10h-1v-258l-3-18-1-1-1-9-2-9-2-7-6-18-3-5v-5h-2l-3-8v-4h-2l-1-5h-2l-3-6v-3h-2v-2h-2l-5-9-9-12v-2h-2l-6-8-6-5-4-5-11-9-14-10-11-7-5-5-3-2v-2l-6-2-4-2z" fill="#705AC2"/>
<path transform="translate(493,267)" d="m0 0h34l12 1 17 5 5 1 12 4 7 4 4 2 4 4v2h2l5 6 8 5v2l-8-1-9-5-10-6-11-4-11-3-18-6-16-2h-27l-17 2-12 4-9 4-10 3-32 17-11 7-11 10-5 3-5 5-6 7-3 3-7 10-4 6-5 6-7 10-11 26-4 10-2 12-4 15-3 17-1 23-1 5h12l11-12 7-8 7-7 3-2 6-1h9l2-4 5-3h6l5 4 1 2v8l-4 5-2 1h-7l-5-4-3-3h-9l-9 7-7 7-7 8-6 4-3 3h-16l-3-1v-2l2-1-1-1v-18l3-24 4-16 3-14 7-20 3-7 7-14 7-11 9-13 6-8 3-1 2-4 9-10 8-8h2v-2l10-7 12-9 12-5 10-6 6-3 5-3h3v-2l7-2 16-3 7-2z" fill="#B57BF4"/>
<path transform="translate(755,615)" d="m0 0 3 2 2 7-1 9-5 37-4 20-3 13-5 13-3 11-6 12-7 10-4 6-5 2v2l-15 10-5 5-12 4-26 5-18 2h-14l-8 1-17-1-5-5v-3l-2-1 8-5 8-3 22-2 3-1 42-2 9-1 2-4 7-3 6-5 5-3 6-8h2l1-6 5-10h2l3-11 3-6 6-20 1-2h2l3-10 6-19 4-23 2-5z" fill="#273B52"/>
<path transform="translate(653,318)" d="m0 0 6 4 4 5v2h2l11 15 3 5v3h2v2h2l3 6v3h2l1 5h2l3 8v4h2l3 9 3 7 4 12 2 7v6l-2-4-2-5h-3l-1-1-2 2h-3v6l-1 3h-2l1 5h-2v2h-2l-1 4-2-4-2-6-2-8-3-7-6-5-5-5-9-6v-2h-2l-3-5v-6h-2l-3-8-1-5h-2l-1-5h-2l-5-8-3-2-3-5-2-12v-8l1-2h-2v-2l6 1 10 5 9 6 5 2v-5l-4-6z" fill="#899BE8"/>
<path transform="translate(273,344)" d="m0 0 1 4-3 8-2 20v14l-2 23-3 16-1 13-1 10-4 26-1 2v14l1 8-4 22-4 29-2 14-4 20-1 11v28l6 25 2 16 5 15 4 9 3 13 3 9 7 14 5 15 6 9 1 3h2v3l5 2 18 18 10 7 14 5 8 4 6 2 9 1h22l8-1h29l18 3 9 4 11 5 3 2 9 3 8 3v2l7 1 5 2 12 3 13 1 11-2 18-5 3-3 14-5h2v-2l5-3 6-3 4-4 25-6h16l3 2 4 3-24 2-13 2-12 4-12 7-10 3-3 1v2l-18 6-11 3h-17l-12-2-13-4-8-3v-2l-8-2-9-4-10-4-8-2-13-3-11-1h-21l-10 2-18 1-15-2-5-3-11-3-7-4-7-2-6-2-5-5-5-4-4-2-7-8-6-5-7-11-5-6-2-6-5-13-3-7-3-8-3-12-2-13-4-8-2-10-2-11-2-15-2-13-2-8-1-12 5-33 2-21 1-6v-11l2-24v-15l1-5v-19l1-9 2-26 2-10 4-18 5-9 2-8 1-9 1-23 2-13z" fill="#2A1F3E"/>
<path transform="translate(765,578)" d="m0 0 2 2-1 4 1 7v12l-1 14v6l1 2v36l-2 15-2 11-2 14-6 21-6 15-5 8-4 4-3 6-9 10-8 7-5 2v2l-15 10-12 4-17 4-20 2h-22l-9-1-6-2v-1l-16-1 4-4 7-2h12l13-1h11l21-3 23-5 9-4 8-7 9-6h2v-2l5-2 2-5 4-5 10-18 4-13 5-14 5-25 2-11 4-33 2-13 2-10 2-26z" fill="#203141"/>
<path transform="translate(642,457)" d="m0 0h12l5 5-2 4-2 5-2 1-1 4-5 3 1 4-7 2-8 10h-2l-2 6-7 11h-2l-2 4-5 5h-2l-1 5-2 3-3 1-5 8-8 7-4 5-3 5-4 5-8 8-4 6-5 3-9 10-4 8-5 6-3 7-5 6-1 4-3 3-1 3h-2v2l-5 2-2 4-10 14-6 10-8 9-7 10-4 6-3 8h-2v2h-2v3l-4 1v5l-3-1-1-4h-2l1-9 2-6 4-6 7-9 5-5 5-9 7-9h2v-5l4-5 5-3 4-12 10-12 6-8 7-6 6-11 4-5 3-3 3-5 6-5 8-14 10-12 4-4h2l1-3h3l1-3 2-1 1-3h2v-2l4-3 6-2 3-5 8-10 4-6h2l2-5 6-7 2-7h2v-2l8-2 4-2 2-4v-5l-4-1 1 3h-8z" fill="#5681DF"/>
<path transform="translate(308,439)" d="m0 0 1 3-1 71v32l1 1 1 34 2-2 2-4 2-9h1l1 22 1 37 1 32 1 16 4 20 2 9 7 20 4 7 6 5 8 5 7 3 3 7 4 3-5 2v2h-10l-10-2-1-2-8-3-5-3v-2l-4-2-4-5-3-3-2-3v-4h-2l-3-7-1-5-2-37v-210l1-26z" fill="#AB86F1"/>
<path transform="translate(424,727)" d="m0 0h8l12 5 6 5v2l3 1 4 5 10 8 2 2 5 2 6 6 14 6 6 1h19l13-5 7-3 6-5 11-7 5-2 2-4 5-5 4-5h2l1 3-2 4v2h2l1 2 3 1v2l4-1h8l1 1v5l-9 3-7 5v2l-12 5-18 6v2l-7 3-8 1-4 2-6 1h-21l-16-4-16-8-5-4-11-6-3-2v-2l-11-3-9-5-9-1v-2h-7v-3l4-2 4-8 4-4z" fill="#6F5AC1"/>
<path transform="translate(583,711)" d="m0 0h7l10 3 1 2-18 1-8 4-1 2-6 2v2l-6 5-1 3h-2l-2 4-14 14h-2v2l-7 5-10 4-9 2h-13l-9-2-13-6v-2l-5-2-2-1v-2h-2v-2h-2v-2h-2v-2h-2l-8-10-6-9-3-3 1-5 5-4h7l16 10 9 6 5 5v2l5 2 4 2 7 1h13l13-4 10-8 10-7 9-4 12-6z" fill="#6DC6E1"/>
<path transform="translate(493,275)" d="m0 0h27l16 2 20 7 16 4 14 8 5 3-4 1-3-1h-12l-15-6-15-3-16-5-7-1-21-1-17 2-18 5-18 6-28 16-11 6-5 4h-2l-2 5-13 10-6 8-6 7-7 11-9 13-6 12-6 17-5 11-4 18-3 17-2 16-1 10 1 4 8-5 4-3-2 4-5 5h-9l-3-1v-14l1-15 4-20 4-15 2-10 8-20 7-16 6-8 8-10 10-15 10-10h2l1-3 8-6 9-8 10-6 34-18 16-5 7-3 12-3z" fill="#B26DF6"/>
<path transform="translate(493,289)" d="m0 0h20l12 2 10 4 27 4v1l-13 1-2 2-4 1h-10l-10-2h-12l-5-1h-19l-21 4-21 7-2 4-8 3-11 8-6 4-5 5-10 7-8 9-6 5-6 8-5 6-2 6-5 6-4 8-3 5-9 20-4 15-1 19-4 17v3l-9 8-1-3 1-12 3-12 1-18 5-16 5-12 5-14 9-15 5-8h2l2-6 7-8 6-8 8-6 6-5 5-5 6-4 4-5 14-8 10-7 19-8 14-4 8-3z" fill="#AC58F8"/>
<path transform="translate(773,616)" d="m0 0h1v10l1 9v31l-1 15-2 14-2 12-5 19-11 22-9 14-10 11-8 7-11 8-6 5-14 6-13 4-14 1-4 1h-29l-2-1h-12l-6 1-1-1h-6l4-2 11-2 8-3 3-1 28-2 16-3 16-4 10-5 8-6h2v-2l6-4 10-9 6-7 4-8 3-1 2-6 3-4 6-15 6-24 1-12 2-8 2-18v-8l1-7 3-6z" fill="#1D2532"/>
<path transform="translate(630,445)" d="m0 0h6v3l-8 1 1 8 1 1h6l3-1v-6l2-1v3l5-1h11l10 8 12 12 5-1 5 4 1 4 5 2 10 1 3 3-6 2h-7v8l13 2 1 2-2 1-12 2-1 6-2 1-21 3-6 4-3 4-3 14-3 5-5 3h-20l-1-3 7 1 1-7 3-4 3-7 6-3h2l-1-10h-3v-2l-5-1-2-3-1-7 3-5 3-2 10 1 4 2 4-5h3v-2h2v-2l6-3-1-4h-2l-1-3-3-3-2-5-4-2v-2l-5-2v-2h-14l-5 6-2 1h-7l-5-5v-10z" fill="#469BDE"/>
<path transform="translate(338,554)" d="m0 0h1v11l1 9v82l1 15 6 23 1 6h2l4 9 2 4 5 2-2 5-2 2-9 1-10-6v-2l-5-2-4-3-4-11-2-16v-25l2-10v-11l1-13 2-5 2-19 1-10v-7l2-6h2l-1-3h2v-8z" fill="#976BF0"/>
<path transform="translate(499,258)" d="m0 0h24l19 1 19 4 18 6 13 6 7 3 12 6 11 7 15 11 14 12 4 7 3 8 2 4-1 4-5-2-9-6-12-6-5-3-6-5-2-1v-2l-5-2-12-6v-3l-4-2-5-3v-2l-4-2v-2h-2l-4-4v-2l-7-2-7-4-12-4-17-4-7-3 4-3-1-2h-39l-3 1v-2l-14 2h-13l4-2 11-2z" fill="#AD8AF0"/>
<path transform="translate(583,716)" d="m0 0h18l5 2v2l5 1v2l5 2 5 4v2h2l7 8 2 1v2l2 1-4 1-9-4-13-10-3-1h-18l-9 4-6 2-5 6h-2l-2 4-4 4-17 11-4 4-13 5-6 2h-19l-9-2-12-6-6-6-5-2-9-8-6-5-5-6-10-6-6-2-14-1-14 7-6 5-4-1 3-5h2v-2l4-4h2v-2l5-2v-2h5v-2l4-2h18l6 3v2l4 2 14 14 4 5v2h2v2h2v2h2v2h2v2l5 2 2 1v2l4 1 9 4 9 2h13l9-2 10-4 5-4h2v-2l8-7 5-5h2l3-6h2l1-4 4-4h2v-2l3-2h3l1-3z" fill="#6E70DA"/>
<path transform="translate(692,508)" d="m0 0 14 3 2 3-12 2h-3l1 10-1 9-1 5v13l-1 10-2 14-1 9h-1l-2-7-7-7-3-2v-2h-5l-3 1h-6l1-7 3-5 1-5 3-7v-6l2-7 1-4 2-5h2l2-2 2-4-10 1-3 5-5 16-8 7-2 1-20 1-6 6h-8l-5-6v-7l4-5 9-1 5 5v2l20-1 5-2 2-5 3-14 5-6 5-3z" fill="#3FADDC"/>
<path transform="translate(763,530)" d="m0 0h1v10l-9 81-2 10-2 5-3 19-8 25-2 4h-2l-3 12-5 15-2 3-3 9-3 3-5 13-5 5-5 6-7 4-3 3-7 3-3 3-9 1-40 2-3 1-22 2-10 4-9 6-9 5-6 4-2-1 3-6 8-6 11-8 9-5 9-3 13-4h12l9 2h26l10-2 8-5 5-3 5-4h2l2-4 4-9 3-1 2-7 1-1 1-7 4-2 2-10 12-28 4-10 2-15 4-14 2-18 3-16 4-24 3-26 3-10z" fill="#463B7C"/>
<path transform="translate(784,619)" d="m0 0h1v20l-2 10-2 31-2 10-2 15-2 12-6 17-9 17-6 10-6 7-4 4-5 6-10 10-6 5-11 6-12 6-8 3-8 2-14 2-8 1h-22l-28 2-13 3h-10v-1l13-3h8v-2l4 1v-2h3v-2l20-3 7-1 21-1 4-1 14-1 15-5 13-6 5-4 11-8 14-13 7-10 7-11 6-12 3-7 6-22 2-19 1-9 1-16 1-4 1-7 5-25 1-3h2z" fill="#1B1C27"/>
<path transform="translate(324,515)" d="m0 0 22 2 5 4 3 8 4 10 6 7v2l4 2 1 5-4 6-4 11-5 4-3 9-3-3-1-19 1-8-4-9-2-7-3-3v7l-2 7v3l-3 21-4 9v13l-2 13-1 10-2 5-1 13-2-4v-24l1-35-1-17v-17l-1-16-1-8z" fill="#B16CF5"/>
<path transform="translate(579,675)" d="m0 0h5l4 4v3l6 2 5 5 8 4 4 4 4 2 1 4-8-2h-28l-7 4-6 3-11 8-10 8-8 7-9 7-4 2h-3v2l-2 1h-13l-5-1 4-3 5-1v-2l2-1 1-3h2v-2l3-3h2l1-3 6-4 3-3 3-5 9-8 5-5 13-11 4-4 4-3h2l1-3 5-2z" fill="#3FADDB"/>
<path transform="translate(757,371)" d="m0 0 4 5 4 7 3 6 2 1 2 6 3 3 3 11 2 7 2 21v64l-1 13 1 5-1 4v28l-2 18-2 23-2 16-4 28-3 6-2-4v-14l-1-5v-10l1-14v-7l-1-6 1-3 1-19 4-21v-22l2-26h2l1-15 1-11v-36l-7-30-9-19-4-6z" fill="#251D35"/>
<path transform="translate(448,410)" d="m0 0h6l14 5 8 9 6 12v7l4 13 1 18-3 14-3 10h-2l-2 4-7 9-14 7h-9l-9-5-7-2-7-10-5-6-3-13-2-8v-18l3-12 2-9 1 2h3l1 3 2-1-2 9-1 1-1 28h2v8h2l1 10h3v3h2l5 5v2h3v3l16 2v-2h4l1-3h4l2-4 2-5h3v-4h2v-5h2v-6l1-2 1-31h-2v-8h-2l-5-15h-2v-3h-2v-2h-3v-2l-4-1-14-1v2h-4v3l-9 7-1 4h-2v4l-2-1-1-6-2-1 1-3h2l2-4 6-5 6-3 3-2z" fill="#946BEE"/>
<path transform="translate(699,410)" d="m0 0h2v2l3-1 5 11 1 2 1 9 1 1 3 18v67l-1 7h-1l-1-15-8-2-3-3v-4l10-1 1-4-8-3-1-1v-5l9-1v-4l-3-1-17-1-3-2-1-7 1-10v-19l-2-9 2-5h2v-2h2l-1-5h2l-1-3 2-6 4-2z" fill="#7BB0E3"/>
<path transform="translate(319,289)" d="m0 0m-1 1m-2 1h2v2l-11 8-9 7-7 8-6 7-6 13-6 22-1 6v62l-1 4v16l-1 9-1 11-3 25-2 12-3 19-4 18-3 10-6 30-3 20v20l4 21 4 20 4 13 3 9-1 3v-2l-4-2-5-15-3-20-5-22v-27l2-17 5-25 1-11 5-34 2-9-1-8v-14l2-8 3-22 2-20 2-14 1-3 2-26v-15l2-16 9-27 6-11 5-5 5-6 5-5 6-3 4-5z" fill="#312249"/>
<path transform="translate(629,322)" d="m0 0 6 1 10 5 9 6 5 5 5 10 5 11 3 10 1 1 3 18 3 9 1 10-5-3-5-5-6-5-5-3v-2h-2l-3-5v-6h-2l-3-8-1-5h-2l-1-5h-2l-5-8-3-2-3-5-2-12v-8l1-2h-2z" fill="#897AEA"/>
<path transform="translate(619,555)" d="m0 0h5v4l-3 2-4 11-10 12h-2l-1 4-4 3-4 7-5 6-5 5-6 8-11 14-8 11-7 13-5 6h-2l-2 5-7 11-4 5-7 9-6 11-4 5-1 5 3 4-1 2 11-4h3l-1 4-7 6-3 3h-2l-1 3h-2v2h-2l-1 4h-2v2l-9 4-6-2-5-3-7-8v-5l6-5 3 1v-2h9l5-3h2l3-10 4-6 5-5 5-7 3-5 4-2 2-4 6-11 3-7 6-9 4-5 5-10 7-7h2l2-6 4-5 6-9 5-7 3-5 5-7 4-3h2l2-4 10-11 7-11z" fill="#479ADF"/>
<path transform="translate(664,394)" d="m0 0 1 2 4 2 5 5 7 6 3 8 2 11 2 7 2 9v23l-2 7-6-2-3 1-15-15-7-5h-16l-1-2-1 6-3 2h-6l-2-2v-8l2-1h6v-3l-8 2-4 2 1-3 4-2h8l7 5 10 1 6-4h2l3-12 1-5 1-11-2-18z" fill="#6889E2"/>
<path transform="translate(641,383)" d="m0 0h2l1 3 2-3 5 1 6 4v2h2v2h2l-2 12h-2l-1 5-1 2h-2v2l-5 2-1 4-7 6h-3l-1 8-6 1v4l-4 2-1 2h-3l-1 3h-2v2h-2v-4l-7-1-5-5-2-4 3-12 2-2 10-2 8-13 4-3h2l3-9 2-4h4z" fill="#706DEE"/>
<path transform="translate(318,395)" d="m0 0 1 4-3 7-4 14-2 9-1 10-1 2-1 26v230l-4-3-3-16-1-18 1-36-1-21v-16l1-15v-57l1-11 1-10v-10l-2-19 2-16 3-5 2-23 2-9h2l1-5 4-10z" fill="#8452D5"/>
<path transform="translate(569,298)" d="m0 0h16l9 2 9 3 17 9v2l5 2 5 6-1 2h2v11l1 11-7-2-9-2-5-3v-2l-4-2-7-5-4-2v-2l-4-2-6-4v-2l-7-2v-2l-4-1-5-3v-2l-5-1-6-4v-2l-2-1z" fill="#986BF1"/>
<path transform="translate(679,349)" d="m0 0 4 2 3 5 2 1 5 9 3 11 6 9 2 5 3 3 3 11 2 11 3 7 3 24 1 19 1 31 1 9v15l1 3h-2l-1 5h2l-1 11-1 22-1 135-2 3-1 10h-1v-258l-3-18-1-1-1-9-2-9-2-7-6-18-3-5v-5h-2l-3-8v-4h-2l-1-5h-2l-3-6v-3h-2v-2h-2z" fill="#6280E8"/>
<path transform="translate(273,344)" d="m0 0 1 4-3 8-2 20v14l-2 23-3 16-1 13-1 10-4 26-1 2v14l1 8-4 22-4 29-2 14-4 20-1 11v33l-3-4-2-18 5-33 2-21 1-6v-11l2-24v-15l1-5v-19l1-9 2-26 2-10 4-18 5-9 2-8 1-9 1-23 2-13z" fill="#2B203F"/>
<path transform="translate(596,442)" d="m0 0 1 3h2l1 10 1-10 1-2h2l3 6 3 5 2 10v17l-2 6-2 7-2 9-8 8-3 4h-2l-1 3-6 4-16-1-8-3-10-6-5-7-2-7h3l-1-9 2 4 4 5v2l3 1 4 6 4 2 13 1v-2h3l1-3h4l2-6 4-3 1-4h2l2-12 1-1v-32z" fill="#6787E0"/>
<path transform="translate(432,702)" d="m0 0h13l3 1v2l5 2 4 2v2h2l1 3-7 1-3 4-1 4 7 8-1 2-4-4v-2l-4-2-4-3v-2l-5-1-1-1h-18l-4 1v2h-5v2l-5 2v2h-2l-2 4h-2v2h-2l-1 4-9 8-5 3h-3v2l-6 3-12 1 4-3-4-3-2-4v-4l13-3 13-8 5-6 16-11 16-8z" fill="#889AE8"/>
<path transform="translate(765,578)" d="m0 0 2 2-1 4 1 7-2 16-1 24-1 7-4 18-3 27-3 17-3 7-4 16-7 14-7 10-3 6-3 3h-2l-2 4-11 9-6 4h-2v2l-8 4-11 4-13 3-24 4-20 1-12 1-17-1 4-4 7-2h12l13-1h11l21-3 23-5 9-4 8-7 9-6h2v-2l5-2 2-5 4-5 10-18 4-13 5-14 5-25 2-11 4-33 2-13 2-10 2-26z" fill="#243549"/>
<path transform="translate(587,728)" d="m0 0h18l6 3 11 9 10 3 5 2 14 7 17 2 13-3 5-1-5 4-4 1-9 2h-15v-2h-9l-11-4-9 1-7 3-10 2-8-1-4-2-4-1v-5h-12v-2l-4-1v-2h-2l-1-4 2-3v-2l10-5z" fill="#5A63A9"/>
<path transform="translate(509,253)" d="m0 0h11l13 1 4 2 28 3 9 3 11 5 9 4 1 2 6 2 2 1v2l4 2 3 3-4-1-13-6-5-2-14-6-13-4-19-4-19-1h-24l-16 1-23 5-21 7-12 5-15 8-16 10-4 3h-2v2l-4 1v2l-5 4h-2v2l-8 6-2 3h-2l-2 4-8 9-10 13-7 11h-2l-1 5-7 12-5 11-2 4-1-3 1-9 6-9h2l1-6 2-4h3v-2h2v-6l8-10h3l1-5 3-1 2-7 7-8 7-5 4-5 5-5h2v-2l10-7h2v-2l5-2 8-6 5-1v-2l14-7 10-4 7-3 8-3 10-4 23-3 13-2z" fill="#8451D4"/>
<path transform="translate(453,714)" d="m0 0h8l16 10 9 6 5 5v2l5 2 2 3-1 2h-2l-1 10 1 4h2v2l8 1 6 2 14-1-1 2-9 2h-13l-9-2-13-6v-2l-5-2-2-1v-2h-2v-2h-2v-2h-2v-2h-2l-8-10-6-9-3-3 1-5z" fill="#7BB0E3"/>
<path transform="translate(454,404)" d="m0 0 5 1-3 2 9 4 8 5 3 4v2h2l4 6 2 5 2 9 4 8 1 14 2 11-3 8-4 11-3 6-6 7-3 5-17 10h-8l-1 1h-7l-6-5-7-3-7-12-4-5-5-24v-15l3-17 1-2-3 1 1-11 3-6h2l2-4 10-9 9-5zm-6 6-7 2-5 3-6 4-4 4v2l-3 1v2l3 3-1 8-1 1-1-3h-3l-1-2-4 15-1 6v18l3 11 2 10 8 10 4 6 11 4 5 3h9l14-7 9-11v-2h2l3-10 3-16-1-16-4-13v-7l-6-12-8-9-14-5z" fill="#9761F3"/>
<path transform="translate(570,407)" d="m0 0h7l8 6 10 6v2h2l7 10-1 12-1 2-1 10-2 1v-11h-2l-3-8v-4h-2v-4l-3-1v-3h-2v-2h-2v-3l-7-2-1-1-13-1v2l-4 1-2 3h-3v2h-2l-2 4-1 4h-2v5h-2l-1 6-2 8v24l1 2v6h2l2 11 1 4-5 1-4-2-3-7-4-15 2-6 1-16 1-7 3-12 4-9 4-6h2l1-3h2l1-3z" fill="#877AE9"/>
<path transform="translate(711,306)" d="m0 0 3 2v2l4 2 2 4 3 1 5 9 7 11 16 24 6 10 3 7 10 19 4 16 4 17v36l-3 26h-2v13l-1 13v24l-4 19-1 18-2 3-2 27-3 13-2-1-2-5-1-5 3-22 3-13 2-24 2-12 3-25 4-27 2-22v-33l-3-20-4-14-6-13-10-17-5-9-7-10-5-8-2-1-5-10-7-10-6-8-3-5z" fill="#322953"/>
<path transform="translate(503,212)" d="m0 0 10 1 7 2 14 1 18 3 12 4 1 1 22 4 17 3 8 4 13 6 16 5 11 6 9 6 9 2 6 4 5 5 4 5 11 9 3 3v2h2l7 8 3 7-1 3-9-11-7-8-5-5-14-12v-2l-4-1-7-5-10-5-7-4-27-9-9-2-9-3-28-5-11-1-12-4-12-3-10-4-14-4-12-5z" fill="#322A53"/>
<path transform="translate(315,515)" d="m0 0h9l-2 1 2 8 1 19v16l1 22-1 28v24l1 15-2 12v23l-3-3-1-11-1-22-1-31-1-30-1-21-1-11v-33l-1-5z" fill="#B47AF4"/>
<path transform="translate(418,686)" d="m0 0 12 2v3l-1 1-10 2-12 7-6 5-10 7-8 5-6 7-11 5-3 1h-15l-8-3-7-7-3-10 5 2 6 5 7 4 9-1 4-4 10-3 7-5 5-1 1-3 10-7 11-8 7-3z" fill="#897AEA"/>
<path transform="translate(741,570)" d="m0 0h1v10l1 3 1-7h1v8l-1 6 2 7 1-5 2-5-1-3h2v-2h3l1-10 2-2-1 14-6 34-2 17-4 14-2 15-4 10-12 28-3 10-4 2 1-8 3-4 5-18 4-7 5-18 1-8-1-9 1-1 1-18v-12l1-7 1-29z" fill="#56519B"/>
<path transform="translate(432,689)" d="m0 0h18v2l3-1 11 1v2l8-1v3h2v3l2 1 3 7 6 18-1 4-6-2-14-9-5-4v-2h-2v-2l-6-2-5-5-7-5-3-3-6-3z" fill="#6889E2"/>
<path transform="translate(338,554)" d="m0 0h1v11l1 9v82l1 15 6 23 1 6h2l4 9 2 5-5-1-8-9-7-16-2-16v-93l-1-2h2l-1-3h2v-8z" fill="#9761F2"/>
<path transform="translate(583,716)" d="m0 0h18l5 2v2l5 1v2l5 2 5 4v2h2l7 8 2 1v2l2 1-4 1-9-4-13-10-3-1h-18l-9 4-9 2-7 7-11 8-4 2-1 2-5 1v-2l8-7 5-5h2l3-6h2l1-4 4-4h2v-2l3-2h3l1-3z" fill="#637DE9"/>
<path transform="translate(418,726)" d="m0 0h6v2l2 1-2 4-3 2v3l-6 5h-2v3h7v1l-11 1-15 4-8 3-3 2-13 2h-25l-11-3v-3h-2l-2-5h-3l-2-5h2v2l5 2 9 4v2l10 1h10l12-2 3-2h3v-2l9-5 5-4 6-2 5-4 10-5z" fill="#8352D4"/>
<path transform="translate(637,325)" d="m0 0 7 2 8 6 6 4 3 5 3 7 5 11 3 10 1 1 3 18 3 9 1 10-5-3-5-5-5-4-3-9-1-14-2-4-1-9-4-7-4-10-7-10-6-6z" fill="#898AEA"/>
<path transform="translate(342,517)" d="m0 0 6 1 4 5 4 12 5 8 3 3v2l4 2 1 5-4 6-4 11-5 4-3 9-3-3-1-19 1-8-4-9-4-15-1-10z" fill="#A64CFC"/>
<path transform="translate(314,511)" d="m0 0h33l7 3 6 7 3 13 4 5 5 2 18 1 1-5 5-3 8 1 4 5v10l-5 4-5 1-7-3-3-4-19-1-5-3-5-5v-3h-2l-2-13-8-6-29-2-4-2z" fill="#518AE4"/>
<path transform="translate(757,371)" d="m0 0 4 5 4 7 3 6 2 1 5 19 3 13 1 6 1 29-1 26-2 21-1 7-2 36-2 18v18l-1 18-2 7-2 15h-2v-13l1-14v-7l-1-6 1-3 1-19 4-21v-22l2-26h2l1-15 1-11v-36l-7-30-9-19-4-6z" fill="#2B203F"/>
<path transform="translate(385,444)" d="m0 0h6l5 4 1 2v8l-4 5-2 1h-7l-5-4-3-3h-9l-9 7-7 7-7 8-6 4-3 3h-16l-3-1v-2l4-1 15-1 11-12 7-8 7-7 3-2 6-1h9l2-4z" fill="#5B82E7"/>
<path transform="translate(679,349)" d="m0 0 4 2 3 5 2 1 5 9 3 11 6 9 2 5 3 3 3 11 2 11 3 7 3 24 1 19 1 31 1 9v15l1 3h-2l-1 5h2l-1 11h-2l-1-21v-13l-1-4v-36l-1-16-3-9-1-7-1-1-1-9-2-9-2-7-6-18-3-5v-5h-2l-3-8v-4h-2l-1-5h-2l-3-6v-3h-2v-2h-2z" fill="#6D72DA"/>
<path transform="translate(670,512)" d="m0 0h12l-1 3-11 3-3 5-5 16-8 7-2 1-20 1-6 6h-8l-5-6v-7l4-5 9-1 5 5v2l20-1 5-2 2-5 3-14 5-6z" fill="#24B1D7"/>
<path transform="translate(308,497)" d="m0 0 7 3v10h8v1h-9l1 2 3 2-3 2 1 4v47l-1 11h-3l-3 4-1-37-1-1v-32z" fill="#BD88F4"/>
<path transform="translate(630,445)" d="m0 0h6v3l-8 1 1 8 1 1h6l3-1v-6l2-1v3l5-1h11l10 8 12 12 5-1 5 4 1 4 5 2 10 1 3 3-6 2h-14l-8-5-5-5-3-1-1-3-3-3-2-5-4-2v-2l-5-2v-2h-14l-5 6-2 1h-7l-5-5v-10z" fill="#3EA9DC"/>
<path transform="translate(562,299)" d="m0 0h5l8 5 21 11 9 5 5 4 9 11 6 7-4 1-6-2-4-2v-2l-4-2-7-5-4-2v-2l-4-2-6-4v-2l-7-2v-2l-4-1-5-3v-2l-5-1-6-4v-2l-2-1z" fill="#9761F3"/>
<path transform="translate(599,791)" d="m0 0h16l3 2 4 3-24 2-13 2-12 4-12 7-10 3-3 1v2l-18 6-11 3h-17l-12-2-13-4-8-3v-2l-8-2-9-4-4-2v-2l6 2 3 2 9 3 8 3v2l7 1 5 2 12 3 13 1 11-2 18-5 3-3 14-5h2v-2l5-3 6-3 4-4z" fill="#2B203F"/>
<path transform="translate(368,488)" d="m0 0 9 1 4 5v8l-4 5-2 1h-7l-4-3v-3l-9-1-36-1-5-2 2-2 44-1 5-5z" fill="#5B82E7"/>
<path transform="translate(742,502)" d="m0 0h2v5l1 4 4-1 1 6 2 3 1 8-2 17-2 4h-2v8l-2 3-1-1-2 6-2-4v-51z" fill="#56519B"/>
<path transform="translate(711,306)" d="m0 0 3 2v2l4 2 2 4 3 1 5 9 7 11 16 24 6 10 3 7 10 19 4 16 4 17v36l-3 26-2-3 3-37-1-17-1-2-3-20-4-14-6-13-10-17-5-9-7-10-5-8-2-1-5-10-7-10-6-8-3-5z" fill="#31244C"/>
<path transform="translate(709,732)" d="m0 0 1 4-5 7-4 1-1 3-6 3-5 4-8 3-6 1h-26l-11-2h-10l-13 4-13 5-6 4-10 7h-3l7-9 5-3 4-4 4-3 17-4 4-2 10-1 10 4 9 1v2l22-2 8-4h3l1-3 9-5 3-3 7-2z" fill="#56529B"/>
<path transform="translate(641,490)" d="m0 0 3 1-3 5 2 9 5 2v2h3l1 2v8l-8 4-4 9-3 8-8-1-3-3h-9v-2l9-2 2-4 4-4 3-1 4-9 3-4-2-5-2-4 1-8z" fill="#4694E1"/>
<path transform="translate(550,411)" d="m0 0 5 1-2 4-3 3h-2l-2 4-3 5-4 12-1 11-1 2-1 16-2 4h-2l-3-12v-11l2-10 2-9 6-9 6-8z" fill="#9761F3"/>
<path transform="translate(331,516)" d="m0 0 11 1v8l2 10-1 4-2-3v7l-2 7v3l-3 21-1 3h-2l-1-27v-24z" fill="#B062F8"/>
<path transform="translate(674,476)" d="m0 0 7 6 7 4 7 1-1 7-2 1h-35l1-4 2 1 4-5h3v-2h2v-2l6-3z" fill="#479ADF"/>
<path transform="translate(260,686)" d="m0 0 3 4 5 16 9 17 8 16 7 10v2h2l7 9 10 9 4 4 10 7 9 4 8 4v1l-7-1-17-9-5-3-2-4-4-1-5-5-1-3-4-2-6-7-4-3-3-6v-2h-2l-4-8-5-13-5-8-3-9-4-11z" fill="#322A53"/>
<path transform="translate(646,489)" d="m0 0 10 1 2 5 14 1 5 1v2l-8 1h-11l-2 5-5 3-6-1-4-4-1-7 3-5z" fill="#24B1D7"/>
<path transform="translate(361,460)" d="m0 0 2 1-11 11-7 8-4 5 3 9 17-1 4-5 2-1h9l4 3-1 2-5-3h-6l-5 5-3 2h-33l-4-2v-6l1-2 13-1 1-3 6-4 15-16z" fill="#9C58F7"/>
<path transform="translate(271,400)" d="m0 0h1v26l-1 4v16l-1 9-1 11-3 25-2 12-3 19-2 4 1-14 3-26 3-34 2-27 2-13z" fill="#322A53"/>
<path transform="translate(593,777)" d="m0 0h4l3 5 9 3-3 2-7 3-17 3-5 2h-4v2l-6 4-10 6-4 3-6 1 4-3 13-8 4-4 5-3h2v-2l12-8 3-3h2z" fill="#322953"/>
<path transform="translate(712,441)" d="m0 0h1l2 11v67l-1 7h-1l-1-15-8-2-3-3v-4l10-1 1-4-8-3-1-1v-5l9-2 1-1v-32l-1-3z" fill="#81A6E5"/>
<path transform="translate(454,404)" d="m0 0 5 1-3 2-13 3-7 1-8 7-2 5v2l-3 3 3 1 1 6-2 5-2 1v-4l-6 1-3 3h-1l1-11 3-6h2l2-4 10-9 9-5z" fill="#AD58F9"/>
<path transform="translate(425,444)" d="m0 0 5 4 3 4-1 13-3 8-3 3h-3v-26z" fill="#203041"/>
<path transform="translate(314,511)" d="m0 0h33l7 3 6 7-1 3v-2h-2v11h-1l-1-10-8-6-29-2-4-2z" fill="#5586E5"/>
<path transform="translate(670,512)" d="m0 0h12l-1 3-11 3-3 5-3 11h-2l-2 5-7 6h-11v-1l9-1v-2l5-2 2-5 3-14 5-6z" fill="#21B6D6"/>
<path transform="translate(340,509)" d="m0 0h7l8 4 7 7 1 2 1 10 2 5 4 1h12l8-4 2-2 9 1v1l-9 3-2 5h-18l-6-3-4-5-3-13-6-7-6-2-24-1v-1z" fill="#8C5AF4"/>
<path transform="translate(357,522)" d="m0 0h2l4 12 4 5 5 2 17 1v1l-7 1 7 2 5 7-4-2-2-3-19-1-5-3-5-5v-3h-2z" fill="#5587E6"/>
<path transform="translate(665,259)" d="m0 0 5 1 6 4 5 5 4 5 11 9 3 3v2h2l7 8 3 7-1 3-9-11-7-8-5-5-14-12-3-5-7-5z" fill="#312249"/>
<path transform="translate(552,412)" d="m0 0 3 1-5 6h-2l-2 4-3 5-4 12-1 11-1 2-1 16-2 4h-2v-17l5-24 3-7h2l2-5h2l2-4z" fill="#986BF1"/>
<path transform="translate(694,493)" d="m0 0 1 2 13 2 1 2-2 1-16 2-18-1-4-2h8v-2l-19-1v-1l34-1z" fill="#3EACDC"/>
<path transform="translate(322,501)" d="m0 0h13l11 2v3h2v3l-8 1h-17l-1-1z" fill="#B163F8"/>
<path transform="translate(478,448)" d="m0 0h2l1 17-1 24-2 5-4 1v2l-2 2-2 4h-2l-2 4-6 1 1-3h4l2-4 2-5h3v-4h2v-5h2v-6l1-2z" fill="#8375E5"/>
<path transform="translate(594,440)" d="m0 0h1l2 6 1 1v32l-2 2-3 9-2-2 3-11v-14l1-4h-2l-1-5h-2l2-11z" fill="#223345"/>
<path transform="translate(499,258)" d="m0 0h24l19 1 10 2v1h-9l-5-1-40 1-3 1v-2l-14 2h-13l4-2 11-2z" fill="#A177F1"/>
<path transform="translate(584,418)" d="m0 0 6 4 10 8 2 6 1 7-1 2-1 10-2 1v-11h-2l-3-8v-4h-2v-4l-3-1v-3h-2v-2h-2z" fill="#8287E7"/>
<path transform="translate(325,743)" d="m0 0h2v2l5 2 9 4v2l10 1h12l-1 2 6-1 2 3-25 1-11-3v-3h-2l-2-5h-3z" fill="#7E53CF"/>
<path transform="translate(629,444)" d="m0 0h8l7 5 13 2v1l-16 1-1-2-1 6-3 2h-6l-2-2v-8l2-1h6v-3l-8 2-4 2 1-3z" fill="#4695DF"/>
<path transform="translate(717,467)" d="m0 0 2 3 1 27 1 9v15l1 3h-2l-1 5h2l-1 11h-2l-1-21v-13l-1-4z" fill="#6F6DD7"/>
<path transform="translate(362,494)" d="m0 0v3l-13 1 12 1 2 1-1 2-7-1-36-1-5-2 2-2 44-1z" fill="#677EE8"/>
<path transform="translate(668,468)" d="m0 0 5 4 5 5 4 3-3-4 1-2 5 5 10 2 10 1 3 3-6 2h-14l-8-5-5-5-3-1-1-3-3-3z" fill="#3FABDC"/>
<path transform="translate(709,732)" d="m0 0 1 4-5 7-4 1-1 3-6 3-5 4-8 3-13 1 1-2 8-2 5-2 4-1 1-3 9-5 3-3 7-2z" fill="#56529B"/>
<path transform="translate(657,452)" d="m0 0 12 4 5 1 1 3 6 2 3 8-5 3-15-15-7-5z" fill="#508BE3"/>
<path transform="translate(592,790)" d="m0 0h6l1 2-25 6-5 5-5 2-2 2h-3v2l-16 6-3 3-8 2 3-3 10-6 10-3 5-4 8-5 5-2v-2l9-3z" fill="#312249"/>
<path transform="translate(336,517)" d="m0 0h6v8l2 10-1 4-2-3v7l-2 7-2-1-1-20z" fill="#AD58F9"/>
<path transform="translate(380,492)" d="m0 0 4 4-1 7-5 5-2 1h-9l-8-5-19-1-15-2v-1h30l9 2 2 4 2 1h7l5-5z" fill="#8D5CF4"/>
<path transform="translate(777,474)" d="m0 0h2v10l-2 20-3 4-2 25h-1v-15l2-26h2l1-15z" fill="#2D2042"/>
<path transform="translate(543,231)" d="m0 0 9 1 14 3 35 6 11 3v1l-10-1-3-1-18-2-16-2-9-3-8-2-5-2z" fill="#463C7D"/>
<path transform="translate(394,790)" d="m0 0h9l21 3 11 2 11 4 6 4-3 1-12-6-14-3-8-1h-34l-9 1-2-2z" fill="#322A53"/>
<path transform="translate(346,469)" d="m0 0 1 2-1 2 4-2-2 4-8 7-5 4h-16l-3-1v-2l4-1 15-1z" fill="#687BE9"/>
<path transform="translate(774,421)" d="m0 0h2l2 9v36l-3 26-2-3 3-37-1-17-1-2z" fill="#312249"/>
<path transform="translate(740,436)" d="m0 0 2 2 1 8 3 9-2 2-5 1-3-1v-10l1-7h3z" fill="#56519B"/>
<path transform="translate(249,645)" d="m0 0h1l3 16 4 13 3 9-1 3v-2l-4-2-5-15-1-9z" fill="#31254C"/>
<path transform="translate(250,556)" d="m0 0h2l-1 10-3 14-3 20-2-2v-11l5-25z" fill="#31244B"/>
<path transform="translate(713,499)" d="m0 0h1v27h-1l-1-15-8-2-3-3v-4l10-1z" fill="#7BB1E3"/>
<path transform="translate(541,473)" d="m0 0 3 4v6h2l2 11 1 4-5 1-3-7-1-13z" fill="#848AE9"/>
<path transform="translate(307,699)" d="m0 0h1l1 15 2 7 1 5h2l3 9 3 1 1 3-2 1-4-3v-2h-2l-2-4 1-2-4-4-2-4z" fill="#8452D5"/>
<path transform="translate(314,511)" d="m0 0h33v1h-11v3h7v1h-13l-12-1-4-2z" fill="#8889E9"/>
<path transform="translate(672,482)" d="m0 0h2l-2 6-3 5-6 2h-6l1-4 2 1 4-5h3v-2h2v-2z" fill="#4793E1"/>
<path transform="translate(410,721)" d="m0 0 4 1-3 3-5 8-8 6-4-1 3-5h2v-2l4-4h2v-2l5-2z" fill="#897AEB"/>
<path transform="translate(662,457)" d="m0 0 4 2 13 13 5-1 5 4 1 4 2 2-7-1-16-15-7-7z" fill="#459EDE"/>
<path transform="translate(646,493)" d="m0 0h7l1 1v7l-3 3-6-2-1-1 1-7z" fill="#4496E0"/>
<path transform="translate(384,449)" d="m0 0h6l3 2-1 7-5 2-4-2v-7z" fill="#8958F4"/>
<path transform="translate(455,805)" d="m0 0 5 1 19 8 7 4 6 1-1 2-9-1-8-3v-2l-5-1v-2l-9-3z" fill="#31264E"/>
<path transform="translate(621,539)" d="m0 0 4 1 3 3-2 5-3 2-4-1-2-2 1-7z" fill="#399EDE"/>
<path transform="translate(694,509)" d="m0 0 12 2 2 3-12 2-7-1v-4z" fill="#48C7DB"/>
<path transform="translate(372,553)" d="m0 0 3 1h6l1 3-8 6h-7l1-4z" fill="#A54CFB"/>
<path transform="translate(394,540)" d="m0 0h9l1 1v7l-1 1-9-1z" fill="#845DF3"/>
<path transform="translate(658,456)" d="m0 0 5 2 16 16 3 4v2l-4-2-5-4-8-10-3-1-1-3-3-3z" fill="#25B0D7"/>
<path transform="translate(324,486)" d="m0 0h11v1h-5v8h14v1h-17l-4-2v-6z" fill="#A96CF4"/>
<path transform="translate(478,448)" d="m0 0h2l1 17-1 18-2 1-1-5z" fill="#7E71DE"/>
<path transform="translate(369,493)" d="m0 0h5l2 2v6l-2 2h-6l-1-1v-7z" fill="#8B58F5"/>
<path transform="translate(316,496)" d="m0 0h24v1h-8v2h6v1h-19l-5-2z" fill="#8992E9"/>
<path transform="translate(679,349)" d="m0 0 4 2 3 5 2 1 5 9 2 8-1 3-3-5v-4h-2l-1-5h-2l-3-6v-3h-2v-2h-2z" fill="#6F6FD9"/>
<path transform="translate(709,732)" d="m0 0 1 4-5 7-4 1-1 3-5 1-8 1 4-3 6-4 5-3 4-1z" fill="#56529B"/>
<path transform="translate(660,520)" d="m0 0 1 4-2 10-3 5-5 3h-20l-1-3h2v2h17l2-4 5-4 2-4z" fill="#399EDD"/>
<path transform="translate(322,501)" d="m0 0h8l1 7 4 2h-12l-1-1z" fill="#B26DF6"/>
<path transform="translate(315,500)" d="m0 0h10l-3 1 1 9h-8z" fill="#B57BF4"/>
<path transform="translate(694,481)" d="m0 0 11 1 3 3-6 2h-8l-4-1 1-4z" fill="#48C7DB"/>
<path transform="translate(770,536)" d="m0 0 2 4-4 21-1 18h-1v-24l3-12z" fill="#312249"/>
<path transform="translate(662,525)" d="m0 0h1v9l-4 6-6 5h-11v-1l9-1v-2l7-4 2-4z" fill="#1DBED5"/>
<path transform="translate(711,306)" d="m0 0 4 4 4 5v2h2l4 7 10 16-1 2-2-1-5-10-7-10-6-8-3-5z" fill="#322A53"/>
<path transform="translate(372,543)" d="m0 0h10v1l7 2 5 7-4-2-2-3-19-1-3-2h6z" fill="#5C80E8"/>
<path transform="translate(438,409)" d="m0 0 4 2-3 4-8 4-4 4h-2l2-5 7-7z" fill="#9660F3"/>
<path transform="translate(454,404)" d="m0 0 5 1-3 2-13 3-9 1 2-3 8-3z" fill="#AD58F9"/>
<path transform="translate(630,450)" d="m0 0h5l2 3v5l-1 1h-6l-1-1v-7z" fill="#627CE9"/>
<path transform="translate(688,280)" d="m0 0 4 2 6 5 7 8 3 5 3 3-1 3-9-11-7-8-5-5z" fill="#322A53"/>
<path transform="translate(682,273)" d="m0 0 5 2 12 11v2h2l7 8 2 5-3-1-4-6-7-8-11-9z" fill="#312249"/>
<path transform="translate(316,487)" d="m0 0h8v7l3 2-11-1z" fill="#B57BF4"/>
<path transform="translate(320,482)" d="m0 0h13v3l2 1h-16l-3-1v-2z" fill="#8991E9"/>
<path transform="translate(335,516)" d="m0 0h12l9 7 1 13-3-3-3-10-5-5-11-1z" fill="#8A5BF3"/>
<path transform="translate(436,488)" d="m0 0h1v7l-2 4-5-1-1-9z" fill="#233245"/>
<path transform="translate(884,841)" d="m0 0h6l1 3-3 4 1 2h-3v2h2l-1 2-5-2-2-4 5-1z" fill="#17161A"/>
<path transform="translate(422,428)" d="m0 0 4 1 1 6-2 5-2 1v-4h-3l1-7z" fill="#AE77F3"/>
<path transform="translate(336,502)" d="m0 0 10 1v3h2v3l-7 1-3-3z" fill="#AD58F9"/>
<path transform="translate(696,495)" d="m0 0 12 2 1 2-2 1-13 1-1-4z" fill="#48C7DB"/>
<path transform="translate(463,487)" d="m0 0h4v2l4 1v6l-4 1-4-5z" fill="#203141"/>
<path transform="translate(448,505)" d="m0 0 7 1 5 1-4 1v2h-12l-4-3h8z" fill="#353D66"/>
<path transform="translate(544,443)" d="m0 0h1v7l-1 2v20l1 2v8h2v7h-1v-6h-2l-2-8v-24z" fill="#4A4487"/>
<path transform="translate(662,326)" d="m0 0 5 2 9 11 1 3-2 2-10-13v-2h-2z" fill="#6F6FD9"/>
<path transform="translate(336,512)" d="m0 0h15l7 6 2 3-1 3-6-8-3-2-6-1v2l3 1-11-1z" fill="#677BE9"/>
<path transform="translate(361,460)" d="m0 0 2 1-11 11-7 8-6 5h-2l1-3 6-4 15-16z" fill="#8B5AF4"/>
<path transform="translate(595,433)" d="m0 0 1 2 3-1 1 1v21h-1v-11h-2l-2-7z" fill="#8397E8"/>
<path transform="translate(715,310)" d="m0 0 5 4v2l3 1 5 9 7 11-1 2-7-10-6-9v-3h-2l-4-5z" fill="#312249"/>
<path transform="translate(627,296)" d="m0 0 5 2 13 11 6 5 2 4-4-2-9-9-13-10z" fill="#8985EA"/>
<path transform="translate(717,714)" d="m0 0h1v7l-2 2-2 7-4 2v-6l3-2 3-9z" fill="#56529B"/>
<path transform="translate(799,391)" d="m0 0 2 2 1 7 4 7 1 17-2-1-2-15-4-9z" fill="#18171B"/>
<path transform="translate(380,492)" d="m0 0 4 4-1 7-5 5-2 1h-9l1-2h7l5-5z" fill="#8B58F5"/>
<path transform="translate(308,546)" d="m0 0h1l1 33-2 3-1-8v-18z" fill="#B088F1"/>
<path transform="translate(599,472)" d="m0 0h1v18l-3 3-2-1v-4h2v-6z" fill="#84A0E6"/>
<path transform="translate(363,498)" d="m0 0 3 1 2 5 7 1v3h-7l-4-3z" fill="#518AE4"/>
<path transform="translate(330,487)" d="m0 0h5l2 8h-7z" fill="#B163F8"/>
<path transform="translate(424,422)" d="m0 0 2 1v2l-3 3-5 10-2-3 3-7z" fill="#B163F8"/>
<path transform="translate(673,517)" d="m0 0h7l-1 5-5 4h-1z" fill="#479BDF"/>
<path transform="translate(469,496)" d="m0 0h3l-1 5-1 2h-2l-2 4-6 1 1-3h4l2-4z" fill="#7766D0"/>
<path transform="translate(466,427)" d="m0 0h2l1 5-4 4-4-1-2-4 5-1h2z" fill="#203141"/>
<path transform="translate(444,416)" d="m0 0h14l4 2v2h3v2h2v2l-4-2-7-4-11-1v2l-5 1v-2h4z" fill="#52448F"/>
<path transform="translate(316,481)" d="m0 0 4 2h-4v2l8 1v1h-9l-5-1 1-4z" fill="#AF8AF1"/>
<path transform="translate(404,835)" d="m0 0 5 1-2 2-6 1h-12v-2l12-1z" fill="#18171B"/>
<path transform="translate(549,487)" d="m0 0 4 3 2 5v4l-4-2-2-3z" fill="#223245"/>
<path transform="translate(400,747)" d="m0 0h5l1 2-12 3-7 2 4-4z" fill="#8746C9"/>
<path transform="translate(614,536)" d="m0 0 3 1-3 4v7l4 6-4-2-3-7v-6z" fill="#3E9ADF"/>
<path transform="translate(765,578)" d="m0 0 2 2-1 4 1 7-1 5h-2l-1-3z" fill="#233448"/>
<path transform="translate(670,512)" d="m0 0h12l-1 3-11 2 1-2h2v-2z" fill="#24B1D7"/>
<path transform="translate(474,442)" d="m0 0 2 4 1 3v8l-3-4-2-8z" fill="#203142"/>
<path transform="translate(564,416)" d="m0 0h13l8 4-1 2-4-2h-10l1-2 4 1v-2l-11 1z" fill="#404177"/>
<path transform="translate(454,503)" d="m0 0 5 1v3l-7-1-4-1v2l-6-1v-1z" fill="#203141"/>
<path transform="translate(554,741)" d="m0 0 2 1-6 6-1 3-3 3-5 1v-2l8-7z" fill="#6581E6"/>
<path transform="translate(583,716)" d="m0 0h18v1l-17 1-1 2-8 1 4-3z" fill="#618CE1"/>
<path transform="translate(548,845)" d="m0 0 2 3-1 2-9 1-1-2z" fill="#151514"/>
<path transform="translate(312,495)" d="m0 0h9v1l-6 2 4 2h-8l-2-3z" fill="#AF8BF1"/>
<path transform="translate(476,467)" d="m0 0h1v10l-2 8h-2v-7l2-4z" fill="#213142"/>
<path transform="translate(474,432)" d="m0 0 2 2 2 6v8h-2v-8h-2l-1-7z" fill="#7C71DC"/>
<path transform="translate(545,434)" d="m0 0h2l-3 15h-1l-1-9z" fill="#7E8BE8"/>
<path transform="translate(560,418)" d="m0 0 4 1-3 1-6 7-3 2-2 3 1-5 2-3h2v-2l3-1z" fill="#42447A"/>
<path transform="translate(577,414)" d="m0 0 5 2 2 4-7-3-13-1v-1z" fill="#7A79DF"/>
<path transform="translate(699,740)" d="m0 0 2 1-3 5-7 3-4-1 9-5z" fill="#5A64A9"/>
<path transform="translate(405,731)" d="m0 0 1 2-8 6-4-1 4-4h2l1-2z" fill="#8B58F5"/>
<path transform="translate(311,510)" d="m0 0h12v1h-9l1 2 3 2h-7l-1-4z" fill="#AF8BF1"/>
<path transform="translate(646,459)" d="m0 0 5 1-1 7-3 4-2-1 3-4z" fill="#6889E2"/>
<path transform="translate(675,268)" d="m0 0 5 2 8 9h-3l-10-9z" fill="#322A53"/>
<path transform="translate(539,813)" d="m0 0 3 1-12 7-6-1v-1l10-3z" fill="#312750"/>
<path transform="translate(557,417)" d="m0 0m-3 1h3l-2 6h-2l-2 4h-3z" fill="#8587E7"/>
<path transform="translate(377,309)" d="m0 0 2 1-13 13-2-1 7-8z" fill="#B07CF3"/>
<path transform="translate(244,587)" d="m0 0h2l-1 13-2-2v-10z" fill="#31264E"/>
<path transform="translate(342,789)" d="m0 0 6 1 13 3 1 2-15-2z" fill="#322A53"/>
<path transform="translate(644,496)" d="m0 0 2 3v2l8-2-2 4-3 1-5-3z" fill="#3E9CDE"/>
<path transform="translate(479,260)" d="m0 0h5l-3 3h-13l4-2z" fill="#A67CF1"/>
<path transform="translate(340,478)" d="m0 0 1 3-4 4h-4v-3z" fill="#6986E4"/>
<path transform="translate(640,447)" d="m0 0 9 3 8 1v1h-15z" fill="#4E8CE1"/>
<path transform="translate(600,436)" d="m0 0 2 2 1 5-1 2-1 10h-1z" fill="#898AEA"/>
<path transform="translate(438,409)" d="m0 0 3 2-10 6h-3l8-7z" fill="#8B58F5"/>
<path transform="translate(341,473)" d="m0 0v3l-6 6h-9v-1l8-2z" fill="#926AF0"/>
<path transform="translate(445,417)" d="m0 0 7 1v2l-9 1-2-2h4z" fill="#283852"/>
<path transform="translate(484,260)" d="m0 0h20v1l-9 2v-2l-12 1z" fill="#AF8BF1"/>
<path transform="translate(383,753)" d="m0 0 3 3-9 2h-5l3-2z" fill="#705AC2"/>
<path transform="translate(424,477)" d="m0 0h1v7h2l3 11h-3l-1-10h-2z" fill="#534A94"/>
<path transform="translate(542,471)" d="m0 0 3 3v8h2v7h-1v-6h-2l-2-8z" fill="#4D4B8D"/>
</svg>
